<svg width="32" height="31" viewBox="0 0 32 31" fill="none" xmlns="http://www.w3.org/2000/svg">
<path d="M0.5 0H31.5V31H10.5C5.78595 31 3.42893 31 1.96447 29.5355C0.5 28.0711 0.5 25.714 0.5 21V0Z" fill="#50BB50"/>
<path d="M21.8333 13H18.5V9.66667C18.5 9.22464 18.3244 8.80071 18.0119 8.48816C17.6993 8.1756 17.2753 8 16.8333 8H15.1667C14.7247 8 14.3007 8.1756 13.9881 8.48816C13.6756 8.80071 13.5 9.22464 13.5 9.66667V13H10.1667C9.72464 13 9.30071 13.1756 8.98816 13.4881C8.6756 13.8007 8.5 14.2247 8.5 14.6667V16.3333C8.5 16.7753 8.6756 17.1993 8.98816 17.5119C9.30071 17.8244 9.72464 18 10.1667 18H13.5V21.3333C13.5 21.7753 13.6756 22.1993 13.9881 22.5119C14.3007 22.8244 14.7247 23 15.1667 23H16.8333C17.2753 23 17.6993 22.8244 18.0119 22.5119C18.3244 22.1993 18.5 21.7753 18.5 21.3333V18H21.8333C22.2753 18 22.6993 17.8244 23.0119 17.5119C23.3244 17.1993 23.5 16.7753 23.5 16.3333V14.6667C23.5 14.2247 23.3244 13.8007 23.0119 13.4881C22.6993 13.1756 22.2753 13 21.8333 13Z" stroke="white" stroke-width="1.5" stroke-linecap="round" stroke-linejoin="round"/>
</svg>
