<svg width="420" height="360" viewBox="0 0 420 360" fill="none" xmlns="http://www.w3.org/2000/svg">
<path d="M108.857 142.193C108.309 140.922 106.133 141.7 106.588 142.982C113.212 161.64 117.847 180.946 120.417 200.578C120.638 202.158 123.004 201.624 122.817 200.079C121.08 185.854 114.823 155.967 108.857 142.193Z" fill="#50BB50"/>
<path d="M155.702 310.408C151.33 309.188 148.499 308.371 144.056 307.418C143.734 307.326 143.388 307.365 143.094 307.527C142.801 307.69 142.584 307.962 142.492 308.284C142.399 308.607 142.438 308.953 142.601 309.246C142.763 309.539 143.035 309.756 143.358 309.849C147.189 311.174 153.124 311.93 153.495 312.787C153.643 313.132 144.546 344.637 142.993 347.061C141.681 349.109 139.562 347.403 137.814 346.659C135.861 345.832 134.425 345.505 132.465 344.692C130.622 343.926 129.752 346.939 131.599 347.695C133.808 348.599 135.503 348.972 137.715 349.854C141.407 351.325 144.08 352.657 145.711 347.845C149.653 336.206 153.062 323.983 156.685 312.193C156.786 311.826 156.739 311.434 156.556 311.101C156.372 310.768 156.066 310.519 155.702 310.408Z" fill="#50BB50"/>
<path d="M245.787 315.629C242.665 319.385 232.672 319.197 227.8 319.745C211.26 321.605 205.869 325.11 191.343 332.427C176.633 339.836 165.534 341.181 155.285 340.693C152.742 340.571 150.612 343.384 155.154 343.663C167.092 344.532 179.047 342.213 189.795 336.944C205.961 329.241 210.009 324.652 228.664 322.582C234.123 321.976 244.212 321.674 247.769 317.058C248.757 315.786 247.526 313.541 245.787 315.629Z" fill="black"/>
<path d="M292.756 138.293C285.152 138.448 277.889 141.475 272.425 146.765C266.961 152.056 263.702 159.218 263.302 166.813C273.311 167.034 303.338 166.464 322.494 164.825C322.326 154.473 311.838 138.293 292.756 138.293Z" fill="black"/>
<path d="M290.421 106.22C288.681 106.264 286.97 106.676 285.401 107.43C283.832 108.183 282.44 109.261 281.318 110.592C280.196 111.923 279.37 113.477 278.892 115.151C278.415 116.825 278.298 118.581 278.55 120.304C279.131 128.335 287.743 131.943 292.982 131.943C298.221 131.943 304.854 127.745 304.624 118.558C304.394 109.371 298.188 105.513 290.421 106.22Z" fill="black"/>
<path d="M344.222 66.5512C343.939 66.4689 343.637 66.4819 343.362 66.5881C343.088 66.6944 342.856 66.8879 342.702 67.139C342.548 67.3901 342.481 67.6849 342.511 67.9779C342.541 68.2709 342.666 68.5459 342.868 68.7607C344.995 71.6197 346.52 72.9697 346.957 76.8628C347.273 79.6888 349.609 80.2942 350.221 76.8164C350.351 74.7035 349.85 72.5995 348.782 70.7717C347.714 68.944 346.127 67.4749 344.222 66.5512Z" fill="black"/>
<path d="M331.864 64.1982C331.564 64.2454 331.291 64.3982 331.093 64.6291C330.896 64.86 330.787 65.1538 330.787 65.4576C330.787 65.7614 330.896 66.0552 331.093 66.2861C331.291 66.517 331.564 66.6698 331.864 66.717C336.126 67.2804 338.442 75.4666 339.028 79.1365C339.794 83.9333 342.342 82.8926 342.53 78.8979C342.757 73.7432 337.671 63.4293 331.864 64.1982Z" fill="black"/>
<path d="M318.018 63.6457C316.955 63.913 316.674 65.895 318.031 66.0761C326.032 67.1632 327.386 72.9852 328.504 79.7992C329.425 85.4113 332.302 84.7441 332.34 79.1055C332.391 71.4584 326.836 61.4318 318.018 63.6457Z" fill="black"/>
<path d="M304.995 66.9998C304.03 67.7974 305.121 69.4788 306.248 69.0856C314.666 66.1514 317.865 74.8192 318.281 79.616C318.438 81.4255 320.764 82.6673 321.208 80.5462C323.232 70.8576 312.583 60.7293 304.995 66.9998Z" fill="black"/>
<path d="M417.519 190.439C417.163 162.496 418.648 133.304 417.519 105.732C416.75 86.9116 416.266 75.873 395.188 73.2681C382.594 71.7214 366.416 72.9455 354.204 73.0228C353.868 73.0196 353.543 73.1502 353.303 73.386C353.063 73.6218 352.926 73.9433 352.923 74.28C352.92 74.6167 353.05 74.9408 353.286 75.1811C353.522 75.4215 353.843 75.5583 354.18 75.5615C366.957 76.1978 381.717 75.8023 393.374 76.505C411.965 77.623 414.609 87.3535 414.64 107.659C414.682 135.498 413.918 163.282 414.172 191.151C414.433 219.905 416.713 251.858 415.878 280.244C415.056 308.287 401.903 307.162 382.313 307.641C323.276 309.117 260.683 308.037 201.798 308.474C200.448 308.474 200.451 310.854 201.798 310.867C258.22 311.444 322.704 312.968 379.501 311.382C405.794 310.646 417.44 311.702 419.355 281.112C420.951 255.855 417.711 205.782 417.519 190.439Z" fill="black"/>
<path d="M308.665 72.8748C275.688 72.5036 240.573 71.5027 207.702 72.6539C191.688 73.2151 172.751 79.1033 172.751 98.2485C172.717 149.619 172.443 200.99 172.53 252.358C172.547 264.289 171.608 279.435 172.945 290.834C173.059 293.164 173.675 295.442 174.751 297.512C175.828 299.582 177.34 301.394 179.182 302.825C180.307 303.708 182.519 302.239 181.023 300.75C179.453 299.193 178.207 297.341 177.357 295.301C176.507 293.26 176.069 291.071 176.069 288.861C175.201 276.165 176.036 261.322 176.043 248.35C176.067 198.356 175.904 148.355 175.904 98.3678C175.904 79.6226 195.913 76.1338 210.707 75.9526C243.249 75.5527 275.852 76.3658 308.406 76.1979C310.514 76.1868 310.819 72.9102 308.665 72.8748Z" fill="black"/>
<path d="M321.232 249.782C320.584 249.861 319.968 250.11 319.447 250.504C318.925 250.898 318.518 251.422 318.265 252.025C318.011 252.627 317.922 253.285 318.006 253.933C318.089 254.581 318.343 255.196 318.74 255.714C320.605 258.352 325.24 258.366 325.693 254.371C325.761 253.763 325.694 253.147 325.496 252.568C325.297 251.989 324.973 251.461 324.547 251.023C324.12 250.584 323.602 250.245 323.029 250.03C322.456 249.816 321.842 249.731 321.232 249.782Z" fill="black"/>
<path d="M305.662 250.058C305.052 249.951 304.426 249.978 303.827 250.138C303.229 250.297 302.672 250.585 302.196 250.981C301.72 251.378 301.336 251.873 301.071 252.433C300.806 252.992 300.665 253.603 300.66 254.223C300.843 257.049 305.757 258.5 307.743 255.796C308.123 255.316 308.374 254.748 308.472 254.144C308.57 253.54 308.512 252.921 308.304 252.346C308.095 251.771 307.743 251.259 307.281 250.858C306.818 250.458 306.261 250.182 305.662 250.058Z" fill="black"/>
<path d="M291.93 252.17C291.498 251.528 290.876 251.038 290.151 250.767C289.427 250.496 288.635 250.459 287.888 250.66C287.141 250.861 286.476 251.291 285.985 251.889C285.494 252.487 285.203 253.223 285.151 253.995C285.157 254.676 285.336 255.344 285.671 255.936C286.006 256.529 286.486 257.026 287.066 257.382C287.647 257.738 288.308 257.94 288.988 257.97C289.668 258 290.344 257.856 290.953 257.552C291.378 257.269 291.741 256.903 292.021 256.476C292.302 256.05 292.493 255.571 292.584 255.069C292.675 254.566 292.664 254.051 292.552 253.553C292.44 253.055 292.228 252.585 291.93 252.17Z" fill="black"/>
<path d="M273.622 251.58C268.452 249.675 265.679 254.645 268.865 257.17C269.728 257.751 270.737 258.075 271.776 258.105C272.815 258.135 273.842 257.87 274.736 257.34C277.374 255.855 276.285 252.561 273.622 251.58Z" fill="black"/>
<path d="M253.775 251.198C253.118 251.283 252.5 251.556 251.995 251.985C251.49 252.414 251.12 252.979 250.93 253.613C250.739 254.247 250.736 254.923 250.921 255.559C251.106 256.195 251.471 256.764 251.972 257.197C254.181 259.002 258.452 258.876 258.653 255.25C258.672 254.639 258.551 254.032 258.3 253.474C258.049 252.917 257.674 252.424 257.203 252.033C256.733 251.642 256.179 251.364 255.585 251.219C254.991 251.075 254.372 251.067 253.775 251.198Z" fill="black"/>
<path d="M238.935 251.737C238.231 251.634 237.512 251.73 236.859 252.014C236.206 252.298 235.646 252.759 235.241 253.345C234.836 253.931 234.604 254.618 234.569 255.329C234.535 256.041 234.7 256.747 235.046 257.37C235.391 257.992 235.904 258.505 236.527 258.851C237.149 259.197 237.856 259.363 238.567 259.328C239.278 259.294 239.965 259.061 240.551 258.657C241.137 258.253 241.599 257.692 241.883 257.04C242.131 256.503 242.249 255.915 242.227 255.325C242.205 254.734 242.043 254.156 241.756 253.64C241.469 253.123 241.064 252.681 240.574 252.351C240.083 252.02 239.522 251.81 238.935 251.737Z" fill="black"/>
<path d="M369.134 240.256C368.801 238.602 366.613 239.165 366.432 240.592C365.769 245.767 366.896 259.89 366.242 268.432C347.837 268.478 329.565 269.559 311.1 269.952C281.953 270.575 253.145 270.502 224.046 271.39C224.4 262.994 223.901 252.634 224.197 242.91C261.367 244.066 315.055 241.076 362.037 241.35C362.441 241.335 362.822 241.164 363.102 240.873C363.382 240.583 363.539 240.195 363.539 239.791C363.539 239.388 363.382 239 363.102 238.709C362.822 238.419 362.441 238.248 362.037 238.233C317.32 238.946 262.719 238.895 223.028 240.48C222.545 240.506 222.088 240.702 221.737 241.034C221.386 241.366 221.164 241.811 221.11 242.291C221.243 254.061 220.723 263.438 221.238 270.559C221.41 272.924 220.761 273.986 223.607 274.048C242.184 274.446 260.284 273.989 278.868 273.723C307.591 273.315 337.11 273.483 365.725 271.841C369.596 271.62 369.203 271.297 369.386 267.811C369.738 261.419 369.205 240.552 369.134 240.256Z" fill="black"/>
<path d="M368.617 186.809C368.12 182.965 367.555 182.832 363.995 182.748C320.689 181.643 268 182.498 224.601 183.466C221.322 183.539 220.867 183.548 220.721 187.116C220.37 195.654 220.546 206.281 220.858 214.715C220.92 216.421 223.383 216.244 223.461 214.6C223.805 207.508 223.556 193.873 223.881 186.268C270.885 186.217 318.667 186.122 365.645 185.737C365.204 194.335 366.697 203.968 365.668 212.832C320.766 213.12 275.079 214.253 229.733 214.744C228.116 214.761 227.919 217.276 229.59 217.298C274.884 217.879 320.276 217.121 367.148 216.054C367.53 216.045 367.898 215.905 368.19 215.657C368.482 215.41 368.68 215.071 368.752 214.695C369.718 210.782 369.251 191.703 368.617 186.809Z" fill="black"/>
<path d="M199.737 294.124C185.758 297.568 176.456 315.28 162.074 315.598C157.808 315.693 156.9 317.968 162.074 318.351C177.083 319.455 186.697 300.587 200.354 297.109C206.476 295.549 197.026 299.617 191.471 312.206C190.718 313.914 193.436 314.919 194.187 313.225C196.191 308.652 199.071 304.515 202.665 301.048C206.781 297.023 206.039 292.568 199.737 294.124Z" fill="black"/>
<path d="M83.6863 69.0502C81.3818 70.9371 79.4529 68.2746 78.315 66.3701C76.3994 63.1619 73.896 55.864 75.1223 52.0924C76.6093 47.49 82.1706 50.3668 84.6982 52.2691C85.8295 53.122 87.0358 51.7101 87.5109 50.8042C91.1411 43.8709 93.5936 33.599 92.0094 25.8371C91.7487 24.56 89.579 24.465 89.5988 25.91C89.7402 34.8252 89.3911 41.1157 85.1489 49.2377C80.7521 45.3358 73.0255 45.3159 71.8567 51.7698C70.4183 59.7239 76.4259 75.725 84.0398 72.6052C85.7477 87.2519 88.2378 101.839 88.8322 117.491C88.892 117.782 89.0534 118.043 89.2876 118.226C89.5218 118.41 89.8135 118.504 90.1107 118.492C90.4079 118.481 90.6913 118.364 90.9104 118.163C91.1295 117.961 91.2699 117.689 91.3068 117.394C92.2701 103.536 88.2997 84.0879 86.2007 70.2588C85.9819 68.8314 84.654 68.257 83.6863 69.0502Z" fill="black"/>
<path d="M122.894 123.437C122.379 117.25 118.267 120.5 115.547 122.462C112.226 124.849 108.668 126.887 104.928 128.543C99.2915 124.883 93.1486 122.07 86.6955 120.193C86.4831 120.111 86.2548 120.079 86.0279 120.098C85.801 120.117 85.5815 120.187 85.3857 120.304C85.19 120.42 85.0233 120.579 84.8981 120.77C84.7728 120.96 84.6924 121.176 84.6628 121.402C84.4551 125.032 85.403 141.159 88.8741 143.717C91.7089 145.808 103.2 136.987 105.445 135.215C110.198 136.223 118.651 144.142 121.25 143.39C123.536 142.71 123.117 126.159 122.894 123.437Z" fill="black"/>
<path d="M131.257 18.6783C130.552 17.2222 128.53 18.3933 129.089 19.8294C136.798 39.6485 142.618 63.7451 138.55 84.8479C135.848 98.8671 126.323 102.95 113.362 99.2228C110.22 98.3214 107.136 97.0907 104.168 95.9815C102.748 95.4513 102.18 97.5945 103.49 98.191C106.034 99.3623 108.64 100.395 111.296 101.284C111.919 106.081 111.489 116.028 111.645 118.604C111.732 120.034 113.855 119.965 114.107 118.589C114.441 113.074 114.36 107.541 113.864 102.038C124.69 104.859 135.229 102.239 139.595 90.8621C146.443 72.9896 139.88 36.4536 131.257 18.6783Z" fill="black"/>
<path d="M110.989 0.514159C109.584 0.569396 109.663 2.78109 111.002 2.94459C117.5 3.7621 127.388 5.60923 126.468 14.4781C126.438 14.7772 126.525 15.0764 126.712 15.3121C126.898 15.5477 127.169 15.7012 127.468 15.7398C127.766 15.7784 128.067 15.6991 128.308 15.5187C128.548 15.3383 128.709 15.0712 128.755 14.7742C130.801 5.10546 119.051 0.200412 110.989 0.514159Z" fill="black"/>
<path d="M118.494 16.0645C113.804 6.59018 102.283 2.36564 92.2523 3.06163C84.3136 3.61179 67.3138 8.3423 66.156 17.8519C65.9638 19.4229 68.6638 19.8073 68.9245 18.2275C70.2392 10.2336 86.5208 6.07537 93.3349 5.82128C97.8485 5.5301 102.36 6.42735 106.418 8.42353C110.477 10.4197 113.941 13.4451 116.466 17.1979C116.621 17.4581 116.871 17.6477 117.163 17.7262C117.456 17.8047 117.767 17.7659 118.032 17.6182C118.296 17.4705 118.492 17.2255 118.579 16.9353C118.665 16.6451 118.635 16.3327 118.494 16.0645Z" fill="black"/>
<path d="M101.015 20.2824C93.1097 15.2116 81.1874 14.3367 73.0786 19.4605C64.2163 25.0571 65.1531 37.3087 71.311 44.5978C71.5322 44.8723 71.8534 45.0477 72.2039 45.0854C72.5545 45.1231 72.9057 45.0201 73.1802 44.7988C73.4547 44.5776 73.6302 44.2564 73.6679 43.9059C73.7056 43.5553 73.6025 43.2042 73.3813 42.9296C68.5204 35.7753 66.4855 25.9321 75.5907 21.1662C83.251 17.1582 92.469 18.7092 99.8796 22.4035C101.108 23.0133 102.158 21.016 101.015 20.2824Z" fill="black"/>
<path d="M133.407 49.1427C132.572 48.7224 131.644 48.5221 130.71 48.5607C129.776 48.5994 128.868 48.8758 128.071 49.3637C126.648 50.4463 127.532 51.6527 128.7 51.3655C130.076 51.0908 131.482 51.0001 132.881 51.0959C134.021 50.9943 134.664 50.042 133.407 49.1427Z" fill="black"/>
<path d="M114.767 50.2122C113.631 49.993 112.461 50.0204 111.336 50.2926C110.211 50.5647 109.158 51.0753 108.247 51.7898C107.244 52.6956 107.834 54.0235 108.943 53.6789C110.756 52.9993 112.683 52.6745 114.619 52.7222C117.308 52.9033 117.215 50.8308 114.767 50.2122Z" fill="black"/>
<path d="M133.835 40.5522C133.195 39.7585 132.373 39.1302 131.44 38.7199C130.506 38.3095 129.488 38.1293 128.471 38.1942C127.453 38.2592 126.466 38.5674 125.592 39.0931C124.719 39.6188 123.984 40.3465 123.45 41.215C123.307 41.4755 123.261 41.7786 123.321 42.0697C123.382 42.3609 123.544 42.6209 123.779 42.8031C124.014 42.9853 124.306 43.0777 124.603 43.0636C124.9 43.0495 125.182 42.9299 125.399 42.7263C125.788 42.1667 126.293 41.6976 126.879 41.3508C127.466 41.0039 128.12 40.7876 128.798 40.7165C129.476 40.6455 130.161 40.7213 130.806 40.9388C131.452 41.1564 132.043 41.5106 132.54 41.9773C133.623 42.7418 134.579 41.7563 133.835 40.5522Z" fill="black"/>
<path d="M115.626 41.5354C114.537 40.8219 113.314 40.3361 112.032 40.1071C110.75 39.8781 109.435 39.9108 108.166 40.203C106.897 40.4953 105.7 41.0411 104.647 41.8077C103.595 42.5743 102.708 43.5459 102.04 44.664C101.861 44.9277 101.794 45.2519 101.853 45.5651C101.913 45.8784 102.095 46.1551 102.358 46.3344C102.622 46.5137 102.946 46.5809 103.259 46.5213C103.573 46.4616 103.849 46.28 104.029 46.0163C105.077 44.4114 106.717 43.2859 108.591 42.8849C110.466 42.4838 112.422 42.8398 114.035 43.8753C115.556 44.8784 117.169 42.5076 115.626 41.5354Z" fill="black"/>
<path d="M130.708 77.0242C129.468 76.7551 128.176 76.8361 126.979 77.2584C126.715 77.3296 126.484 77.4889 126.324 77.7097C126.163 77.9305 126.083 78.1996 126.097 78.4722C126.111 78.7448 126.217 79.0045 126.399 79.2081C126.581 79.4118 126.827 79.5471 127.096 79.5916C129.076 79.9057 131.025 80.3899 132.922 81.0388C139.31 82.6319 132.88 77.5191 130.708 77.0242Z" fill="black"/>
<path d="M122.847 77.5501C120.7 77.1797 118.49 77.4766 116.517 78.4008C114.591 79.5347 112.805 80.8903 111.194 82.4397C108.658 84.362 110.403 84.9519 112.573 83.9864C114.411 83.1755 115.887 82.4397 117.712 81.757C119.602 81.2311 121.448 80.5619 123.236 79.7552C124.137 79.1896 123.806 77.992 122.847 77.5501Z" fill="black"/>
<path d="M124.184 48.0092C123.576 46.7056 121.418 47.3022 121.99 48.6919C125.029 55.8636 126.631 63.5617 126.707 71.3502C126.745 74.8854 121.004 71.2243 118.426 70.4487C118.169 70.3988 117.903 70.4337 117.668 70.5481C117.433 70.6626 117.241 70.8504 117.122 71.0833C117.002 71.3162 116.962 71.5815 117.007 71.8393C117.052 72.0971 117.179 72.3333 117.37 72.5124C118.822 73.5081 120.421 74.2694 122.109 74.7683C126.04 76.1757 129.334 76.8828 129.358 71.2331C129.278 63.215 127.515 55.303 124.184 48.0092Z" fill="black"/>
<path d="M79.2474 275.104C103.722 286.815 139.511 299.488 166.48 300.944C166.701 267.676 168.206 151.53 168.206 139.924C155.775 135.308 142.955 131.819 129.9 129.499C132.971 159.769 127.774 188.174 127.677 217.972C127.606 239.947 128.256 261.898 128.203 283.83C128.203 285.272 126.035 285.597 125.921 284.093C124.356 263.668 124.153 243.14 124.323 222.669C114.296 198.409 86.8458 145.012 71.7153 128.742C52.685 134.329 25.758 146.835 16.1953 159.995C2.23141 179.186 -4.76161 270.327 3.61896 291.978C11.9995 313.629 100.454 352.562 126.245 359.197C126.245 337.379 137.306 312.009 142.79 303.048C119.562 295.405 96.1942 288.227 74.5611 277.066C64.8592 272.062 57.073 265.59 57.3691 254.479C57.811 237.985 58.6418 215.683 61.9361 199.651C61.9887 199.342 62.1599 199.067 62.413 198.884C62.666 198.7 62.9809 198.623 63.2901 198.669C63.5993 198.715 63.8781 198.88 64.0669 199.13C64.2558 199.379 64.3395 199.692 64.3002 200.002C61.8102 217.152 61.9759 234.589 60.6369 251.876C59.5874 265.445 67.9105 269.682 79.2474 275.104ZM130.03 229.697C135.094 218.67 139.973 207.949 144.08 196.529C147.348 187.47 149.352 185.342 141.776 178.062C138.837 175.24 136.009 171.804 141.418 169.822C143.994 168.877 150.733 167.655 150.194 164.52C149.394 159.895 140.801 144.986 138.287 140.242C137.591 138.929 139.392 137.59 140.242 138.896C144.829 146.1 148.79 153.682 152.083 161.561C153.188 164.095 153.822 166.97 151.334 168.91C149.256 170.212 146.98 171.168 144.595 171.74C140.658 172.763 141.413 173.645 144.754 176.981C152.521 184.73 149.723 189.239 146.367 198.464C142.454 209.549 137.762 220.343 132.328 230.767C132.172 231.048 131.916 231.259 131.61 231.359C131.304 231.458 130.972 231.438 130.681 231.302C130.39 231.167 130.161 230.926 130.04 230.628C129.919 230.33 129.916 229.998 130.03 229.697ZM63.8782 163.567C62.431 159.087 65.3321 146.221 66.7506 141.846C67.1925 140.48 69.3578 141.234 69.033 142.602C67.9017 147.39 65.69 156.711 66.1827 161.563C66.5672 165.339 70.0206 165.565 80.5444 168.967C88.7195 171.619 86.6425 175.34 86.1255 182.445C85.3146 193.634 84.506 193.661 93.1959 201.005C101.528 208.044 110.109 216.266 118.742 222.713C120.129 223.749 118.413 225.764 117.063 224.779C107.847 218.044 96.1455 207.708 87.7296 200.006C81.5431 194.348 82.9505 189.027 83.4918 181.526C83.8498 176.57 85.6858 173.627 80.0737 171.773C76.6026 170.627 73.0896 169.615 69.6384 168.411C68.3635 168.117 67.1767 167.524 66.1753 166.682C65.174 165.84 64.3867 164.773 63.8782 163.567Z" fill="#50BB50"/>
</svg>
