<svg width="421" height="564" viewBox="0 0 421 564" fill="none" xmlns="http://www.w3.org/2000/svg">
<path d="M26.1287 411.617L24.8824 335.783H85.9529V362.271L58.7827 363.238V368.56L85.9529 369.528V393.959L58.7827 394.201V411.617H26.1287Z" fill="black"/>
<path d="M94.4036 408.231L92.1602 336.025L154.976 335.783L156.097 358.401L126.31 359.973L126.434 363.843L155.848 365.536L154.726 381.622L128.803 384.404L128.927 387.307L154.851 389.726L155.1 411.738H97.8934L94.4036 408.231Z" fill="black"/>
<path d="M158.67 411.617L180.481 335.783L224.726 336.509L248.531 411.617H208.773L202.042 391.782H200.048L193.692 411.617H158.67ZM209.146 371.826C208.648 368.076 207.526 364.932 204.909 362.755C203.164 362.755 200.671 369.165 200.173 372.914C203.538 372.914 206.155 372.309 209.146 371.826Z" fill="black"/>
<path d="M252.091 411.496L251.966 384.283H273.528L252.589 358.521L253.212 347.636C255.83 340.5 262.684 337.84 269.789 336.025L314.283 335.783L314.906 364.085L296.211 364.327L315.155 388.274L316.277 398.676C313.66 406.175 306.68 410.045 299.077 411.375L252.091 411.496Z" fill="black"/>
<path d="M341.034 411.617L339.663 366.504L320.22 367.472V335.783H395.998V365.295L375.807 366.02V411.617H341.034Z" fill="black"/>
<path d="M24.8824 497.859L27.0338 425.213H78.9071C85.959 426.371 97.9113 431.933 98.2699 441.434C98.3894 445.257 97.7918 453.599 95.7599 456.496L85.8394 461.362L96.477 464.838C98.748 468.082 99.9432 475.497 99.9432 480.943C99.9432 491.023 88.8275 497.396 78.1899 497.859H24.8824ZM61.6957 450.239C62.5323 450.123 63.369 450.123 64.0861 449.776C65.6399 448.385 66.118 448.617 64.6838 444.909C62.0542 444.098 59.6638 443.172 57.0342 444.909C56.0781 446.532 56.5561 447.922 57.0342 449.312C58.4685 450.123 60.1419 450.239 61.6957 450.239ZM64.9228 480.132C65.1618 479.321 65.1618 478.742 65.1618 478.046C65.1618 476.888 65.0423 475.613 63.8471 474.802C62.8909 474.107 62.0542 473.875 61.098 473.644C59.5442 473.064 57.3928 472.948 55.839 474.107C55.1219 476.193 54.5242 477.583 56.4366 480.827C57.7514 481.522 60.0223 482.797 64.9228 480.132Z" fill="black"/>
<path d="M107.778 494.615L105.626 425.444L165.866 425.213L166.942 446.879L138.376 448.385L138.495 452.093L166.703 453.715L165.627 469.125L140.766 471.79L140.886 474.571L165.747 476.888L165.986 497.975H111.124L107.778 494.615Z" fill="black"/>
<path d="M169.409 497.859L190.325 425.213L232.756 425.908L255.585 497.859H217.457L211.003 478.857H209.091L202.995 497.859H169.409ZM217.816 459.74C217.338 456.148 216.262 453.136 213.752 451.05C212.079 451.05 209.688 457.191 209.21 460.783C212.437 460.783 214.947 460.203 217.816 459.74Z" fill="black"/>
<path d="M258.999 497.743L258.88 471.674H279.557L259.477 446.995L260.075 436.567C262.585 429.731 269.159 427.182 275.972 425.444L318.642 425.213L319.239 452.325L301.311 452.556L319.478 475.497L320.554 485.462C318.044 492.645 311.351 496.353 304.06 497.627L258.999 497.743Z" fill="black"/>
<path d="M344.296 497.859L342.981 454.642L324.336 455.569V425.213H397.006V453.483L377.643 454.179V497.859H344.296Z" fill="black"/>
<path d="M24.8824 563.831V511.618H53.2705C58.8962 512.717 63.0506 514.068 67.1184 519.56L67.0319 533.416C64.5219 537.471 62.6178 539.921 59.2424 541.104L73.3499 563.831H57.1652L41.0671 542.963V563.831H24.8824ZM51.1068 528.516C50.5875 524.291 48.9431 522.94 42.7981 522.94C38.9034 525.897 39.7688 528.262 42.7981 531.219C48.5103 532.993 50.0682 530.797 51.1068 528.516Z" fill="black"/>
<path d="M81.6431 563.24V511.703L116.696 511.534L115.657 525.136L95.8372 526.066L96.0968 530.881L115.743 532.149V543.301L96.9623 544.315L97.3085 549.299L115.917 550.989L116.003 563.662H90.4711L81.6431 563.24Z" fill="black"/>
<path d="M159.982 563.831L141.634 563.578C132.633 560.958 127.786 550.06 127.786 544.23C127.786 540.597 127.613 529.867 127.873 526.15C130.815 520.152 137.047 514.406 143.884 511.872L160.069 511.534C165.435 512.21 170.888 516.434 174.782 519.983L163.704 527.164C159.809 526.235 157.126 524.714 152.106 525.305C145.529 526.91 141.98 533.162 141.98 537.725C144.403 545.92 147.952 549.722 154.01 549.891C157.819 549.891 161.54 547.694 166.3 543.808L178.071 550.651C171.147 558.931 166.127 560.62 159.982 563.831Z" fill="black"/>
<path d="M185.754 563.746L185.235 511.787L221.066 511.449L221.24 525.136L201.42 525.981L200.381 531.304L221.24 532.064L221.586 543.132L201.16 544.399L201.333 549.299L221.586 550.905L220.201 563.831L194.15 563.662L185.754 563.746Z" fill="black"/>
<path d="M233.628 563.831L233.715 511.618H248.082C250.678 511.618 258.381 511.534 263.315 513.9C268.161 516.265 273.874 520.236 273.874 528.347C273.874 535.697 271.104 540.851 267.296 545.075C263.142 547.272 255.698 548.37 248.428 548.285L247.822 563.831H233.628ZM259.593 531.219C258.901 527.079 256.823 524.883 250.592 524.883C248.169 527.924 247.39 532.233 250.505 535.106C256.304 536.88 258.554 533.585 259.593 531.219Z" fill="black"/>
<path d="M285.32 563.746L284.454 511.618H300.899L301.158 563.831L285.32 563.746Z" fill="black"/>
<path d="M315.032 561.634L314.599 511.618L348.613 511.703L349.478 524.967L330.005 526.066L329.312 531.304L349.046 532.233L348.613 543.132L330.091 544.653L330.178 549.215L349.305 550.905L349.392 564L318.407 563.746L315.032 561.634Z" fill="black"/>
<path d="M359.703 563.831L360.309 549.975H377.273L360.482 527.417L360.742 518.377C362.733 514.491 366.974 512.632 370.868 511.703L397.006 511.787L396.92 526.066L379.09 526.235L396.141 547.779L396.054 556.058C394.669 560.705 391.38 562.733 388.697 563.915L359.703 563.831Z" fill="black"/>
<path d="M109.755 141.693C109.207 140.422 107.03 141.2 107.486 142.482C114.109 161.14 118.745 180.446 121.315 200.078C121.536 201.658 123.902 201.124 123.714 199.579C121.978 185.354 115.72 155.467 109.755 141.693Z" fill="#50BB50"/>
<path d="M156.6 309.908C152.227 308.688 149.397 307.871 144.954 306.918C144.631 306.826 144.285 306.865 143.992 307.027C143.699 307.19 143.482 307.462 143.389 307.784C143.297 308.107 143.336 308.453 143.498 308.746C143.661 309.039 143.933 309.256 144.255 309.349C148.087 310.674 154.021 311.43 154.393 312.287C154.541 312.632 145.444 344.137 143.891 346.561C142.578 348.609 140.46 346.903 138.712 346.159C136.759 345.332 135.322 345.005 133.363 344.192C131.52 343.426 130.649 346.439 132.497 347.195C134.706 348.099 136.401 348.472 138.612 349.354C142.304 350.825 144.978 352.157 146.609 347.345C150.55 335.706 153.959 323.483 157.583 311.693C157.684 311.326 157.637 310.934 157.454 310.601C157.27 310.268 156.964 310.019 156.6 309.908Z" fill="#50BB50"/>
<path d="M246.685 315.129C243.563 318.885 233.57 318.697 228.698 319.245C212.157 321.105 206.766 324.61 192.241 331.927C177.53 339.336 166.432 340.681 156.182 340.193C153.639 340.071 151.509 342.884 156.052 343.163C167.99 344.032 179.945 341.713 190.692 336.444C206.859 328.741 210.907 324.152 229.562 322.082C235.021 321.476 245.11 321.174 248.667 316.558C249.655 315.286 248.424 313.041 246.685 315.129Z" fill="black"/>
<path d="M293.654 137.793C286.05 137.948 278.786 140.975 273.322 146.265C267.859 151.556 264.599 158.718 264.2 166.313C274.208 166.534 304.235 165.964 323.392 164.325C323.224 153.973 312.735 137.793 293.654 137.793Z" fill="black"/>
<path d="M291.319 105.72C289.579 105.764 287.868 106.176 286.299 106.93C284.729 107.683 283.338 108.761 282.216 110.092C281.094 111.423 280.267 112.977 279.79 114.651C279.313 116.325 279.196 118.081 279.447 119.804C280.029 127.835 288.641 131.443 293.88 131.443C299.118 131.443 305.751 127.245 305.522 118.058C305.292 108.871 299.085 105.013 291.319 105.72Z" fill="black"/>
<path d="M345.12 66.0512C344.837 65.969 344.535 65.982 344.26 66.0882C343.985 66.1944 343.753 66.388 343.599 66.6391C343.445 66.8902 343.378 67.185 343.408 67.478C343.438 67.771 343.564 68.046 343.765 68.2607C345.893 71.1198 347.418 72.4698 347.855 76.3629C348.171 79.1888 350.506 79.7942 351.119 76.3165C351.249 74.2035 350.748 72.0995 349.68 70.2718C348.612 68.444 347.025 66.975 345.12 66.0512Z" fill="black"/>
<path d="M332.762 63.6982C332.462 63.7454 332.189 63.8982 331.991 64.1291C331.794 64.36 331.685 64.6538 331.685 64.9576C331.685 65.2614 331.794 65.5552 331.991 65.7861C332.189 66.017 332.462 66.1698 332.762 66.217C337.024 66.7804 339.34 74.9666 339.925 78.6365C340.692 83.4333 343.239 82.3926 343.427 78.3979C343.655 73.2432 338.569 62.9293 332.762 63.6982Z" fill="black"/>
<path d="M318.916 63.1457C317.853 63.4131 317.572 65.395 318.929 65.5762C326.929 66.6632 328.284 72.4852 329.402 79.2993C330.323 84.9114 333.2 84.2441 333.237 78.6055C333.288 70.9585 327.734 60.9318 318.916 63.1457Z" fill="black"/>
<path d="M305.893 66.4997C304.927 67.2974 306.019 68.9788 307.146 68.5855C315.564 65.6513 318.763 74.3191 319.179 79.1159C319.335 80.9255 321.662 82.1672 322.106 80.0461C324.13 70.3575 313.48 60.2292 305.893 66.4997Z" fill="black"/>
<path d="M418.417 189.939C418.061 161.996 419.546 132.804 418.417 105.232C417.648 86.4116 417.164 75.373 396.086 72.768C383.492 71.2214 367.314 72.4454 355.102 72.5227C354.765 72.5195 354.441 72.6502 354.201 72.8859C353.961 73.1217 353.824 73.4433 353.82 73.7799C353.817 74.1166 353.948 74.4407 354.184 74.6811C354.419 74.9214 354.741 75.0582 355.078 75.0614C367.855 75.6978 382.614 75.3023 394.272 76.0049C412.862 77.1229 415.507 86.8535 415.538 107.159C415.58 134.998 414.815 162.782 415.07 190.651C415.33 219.405 417.61 251.358 416.775 279.744C415.953 307.786 402.8 306.662 383.211 307.141C324.174 308.617 261.581 307.537 202.696 307.974C201.346 307.974 201.348 310.354 202.696 310.367C259.118 310.944 323.601 312.468 380.398 310.882C406.691 310.146 418.337 311.202 420.253 280.612C421.848 255.355 418.609 205.282 418.417 189.939Z" fill="black"/>
<path d="M309.563 72.3749C276.586 72.0037 241.471 71.0028 208.6 72.1539C192.586 72.7151 173.648 78.6034 173.648 97.7486C173.615 149.119 173.341 200.49 173.427 251.858C173.445 263.789 172.506 278.935 173.843 290.334C173.956 292.664 174.573 294.942 175.649 297.012C176.726 299.082 178.237 300.894 180.08 302.325C181.205 303.209 183.416 301.739 181.921 300.25C180.351 298.694 179.105 296.841 178.255 294.801C177.404 292.76 176.967 290.571 176.967 288.361C176.099 275.665 176.934 260.822 176.94 247.85C176.965 197.856 176.801 147.855 176.801 97.8679C176.801 79.1226 196.81 75.6339 211.605 75.4527C244.146 75.0528 276.75 75.8659 309.304 75.6979C311.412 75.6869 311.717 72.4102 309.563 72.3749Z" fill="black"/>
<path d="M322.13 249.282C321.482 249.361 320.865 249.61 320.344 250.004C319.823 250.398 319.415 250.922 319.162 251.525C318.909 252.127 318.82 252.785 318.903 253.433C318.987 254.081 319.24 254.696 319.638 255.214C321.503 257.852 326.138 257.865 326.591 253.871C326.659 253.263 326.592 252.647 326.393 252.068C326.195 251.489 325.871 250.961 325.444 250.522C325.018 250.084 324.5 249.745 323.926 249.53C323.353 249.316 322.74 249.231 322.13 249.282Z" fill="black"/>
<path d="M306.56 249.558C305.95 249.451 305.324 249.478 304.725 249.638C304.127 249.797 303.57 250.085 303.094 250.481C302.618 250.878 302.234 251.373 301.969 251.933C301.703 252.492 301.563 253.103 301.558 253.723C301.741 256.549 306.655 258 308.641 255.296C309.021 254.816 309.272 254.248 309.37 253.644C309.468 253.04 309.41 252.421 309.202 251.846C308.993 251.271 308.641 250.759 308.178 250.358C307.716 249.958 307.159 249.682 306.56 249.558Z" fill="black"/>
<path d="M292.828 251.67C292.396 251.028 291.774 250.538 291.049 250.267C290.324 249.996 289.533 249.959 288.786 250.16C288.039 250.361 287.374 250.791 286.883 251.389C286.392 251.987 286.101 252.723 286.049 253.495C286.055 254.176 286.234 254.844 286.569 255.436C286.904 256.029 287.384 256.526 287.964 256.882C288.544 257.238 289.206 257.44 289.886 257.47C290.566 257.5 291.242 257.356 291.851 257.052C292.276 256.769 292.639 256.403 292.919 255.976C293.199 255.55 293.391 255.071 293.482 254.569C293.573 254.066 293.562 253.551 293.45 253.053C293.337 252.555 293.126 252.085 292.828 251.67Z" fill="black"/>
<path d="M274.52 251.08C269.35 249.175 266.577 254.145 269.763 256.67C270.625 257.251 271.635 257.575 272.674 257.605C273.713 257.635 274.739 257.37 275.634 256.84C278.272 255.355 277.183 252.061 274.52 251.08Z" fill="black"/>
<path d="M254.672 250.698C254.016 250.783 253.398 251.056 252.893 251.485C252.388 251.914 252.018 252.479 251.827 253.113C251.637 253.747 251.634 254.423 251.818 255.059C252.003 255.695 252.368 256.264 252.869 256.697C255.079 258.502 259.35 258.376 259.551 254.75C259.57 254.139 259.449 253.532 259.198 252.974C258.946 252.417 258.571 251.924 258.101 251.533C257.63 251.142 257.077 250.864 256.483 250.719C255.889 250.575 255.27 250.567 254.672 250.698Z" fill="black"/>
<path d="M239.833 251.237C239.129 251.134 238.409 251.23 237.757 251.514C237.104 251.798 236.543 252.259 236.139 252.845C235.734 253.431 235.501 254.118 235.467 254.829C235.432 255.541 235.597 256.247 235.943 256.87C236.289 257.492 236.802 258.005 237.424 258.351C238.047 258.697 238.753 258.863 239.464 258.828C240.176 258.794 240.863 258.561 241.449 258.157C242.035 257.753 242.496 257.192 242.781 256.54C243.029 256.003 243.146 255.415 243.124 254.824C243.102 254.234 242.941 253.656 242.654 253.14C242.367 252.623 241.961 252.181 241.471 251.851C240.981 251.52 240.42 251.31 239.833 251.237Z" fill="black"/>
<path d="M370.032 239.756C369.698 238.102 367.511 238.665 367.33 240.092C366.667 245.267 367.794 259.39 367.14 267.932C348.735 267.978 330.462 269.059 311.998 269.452C282.85 270.075 254.043 270.002 224.944 270.89C225.298 262.494 224.798 252.134 225.094 242.41C262.264 243.566 315.953 240.576 362.935 240.85C363.338 240.835 363.72 240.664 364 240.373C364.28 240.083 364.436 239.695 364.436 239.291C364.436 238.888 364.28 238.5 364 238.209C363.72 237.919 363.338 237.748 362.935 237.733C318.217 238.446 263.617 238.395 223.925 239.98C223.443 240.006 222.986 240.202 222.635 240.534C222.283 240.866 222.061 241.311 222.008 241.791C222.14 253.561 221.621 262.938 222.136 270.059C222.308 272.424 221.659 273.486 224.504 273.548C243.082 273.946 261.182 273.489 279.766 273.223C308.489 272.815 338.008 272.983 366.623 271.341C370.494 271.12 370.101 270.797 370.284 267.311C370.635 260.919 370.103 240.052 370.032 239.756Z" fill="black"/>
<path d="M369.515 186.309C369.018 182.465 368.452 182.332 364.893 182.248C321.587 181.143 268.897 181.998 225.499 182.966C222.22 183.039 221.765 183.048 221.619 186.616C221.267 195.154 221.444 205.781 221.756 214.215C221.818 215.921 224.281 215.744 224.358 214.1C224.703 207.008 224.453 193.373 224.778 185.768C271.783 185.717 319.565 185.622 366.543 185.237C366.101 193.835 367.595 203.468 366.565 212.332C321.664 212.62 275.976 213.753 230.631 214.244C229.014 214.261 228.817 216.776 230.488 216.798C275.782 217.379 321.174 216.621 368.046 215.554C368.428 215.545 368.796 215.405 369.087 215.157C369.379 214.91 369.578 214.571 369.65 214.195C370.615 210.282 370.149 191.203 369.515 186.309Z" fill="black"/>
<path d="M200.635 293.624C186.655 297.068 177.353 314.78 162.972 315.098C158.705 315.193 157.797 317.468 162.972 317.851C177.981 318.955 187.594 300.087 201.251 296.609C207.374 295.049 197.924 299.117 192.369 311.706C191.616 313.414 194.333 314.419 195.085 312.725C197.089 308.152 199.969 304.015 203.562 300.548C207.679 296.523 206.936 292.068 200.635 293.624Z" fill="black"/>
<path d="M84.584 68.5502C82.2795 70.4371 80.3506 67.7747 79.2127 65.8701C77.2971 62.662 74.7937 55.364 76.02 51.5924C77.507 46.9901 83.0683 49.8668 85.5959 51.7692C86.7272 52.6221 87.9335 51.2102 88.4086 50.3043C92.0388 43.3709 94.4913 33.099 92.9071 25.3371C92.6464 24.06 90.4767 23.965 90.4965 25.41C90.638 34.3253 90.2889 40.6157 86.0466 48.7378C81.6498 44.8358 73.9232 44.8159 72.7544 51.2698C71.316 59.224 77.3236 75.2251 84.9375 72.1053C86.6454 86.752 89.1355 101.339 89.7299 116.991C89.7897 117.282 89.9512 117.543 90.1853 117.726C90.4195 117.91 90.7112 118.004 91.0084 117.992C91.3056 117.981 91.5891 117.864 91.8081 117.663C92.0272 117.461 92.1676 117.189 92.2045 116.894C93.1678 103.036 89.1974 83.588 87.0984 69.7588C86.8796 68.3315 85.5517 67.757 84.584 68.5502Z" fill="black"/>
<path d="M123.791 122.937C123.276 116.75 119.165 120 116.445 121.962C113.124 124.349 109.566 126.387 105.826 128.043C100.189 124.383 94.0463 121.57 87.5932 119.693C87.3808 119.611 87.1525 119.579 86.9256 119.598C86.6987 119.617 86.4792 119.687 86.2835 119.804C86.0877 119.92 85.921 120.079 85.7958 120.27C85.6705 120.46 85.5901 120.676 85.5605 120.902C85.3528 124.532 86.3007 140.659 89.7718 143.217C92.6066 145.308 104.098 136.487 106.343 134.715C111.096 135.723 119.549 143.642 122.147 142.89C124.434 142.21 124.014 125.659 123.791 122.937Z" fill="black"/>
<path d="M132.154 18.1783C131.45 16.7222 129.428 17.8933 129.987 19.3294C137.696 39.1485 143.516 63.2451 139.448 84.3479C136.746 98.3671 127.221 102.45 114.26 98.7228C111.118 97.8214 108.034 96.5907 105.066 95.4815C103.645 94.9513 103.078 97.0945 104.388 97.691C106.932 98.8623 109.538 99.8949 112.194 100.784C112.817 105.581 112.386 115.528 112.543 118.104C112.629 119.534 114.753 119.465 115.004 118.089C115.338 112.574 115.257 107.041 114.761 101.538C125.588 104.359 136.127 101.739 140.493 90.3621C147.34 72.4896 140.778 35.9536 132.154 18.1783Z" fill="black"/>
<path d="M111.886 0.0141589C110.481 0.069396 110.561 2.28109 111.9 2.44459C118.398 3.2621 128.285 5.10923 127.366 13.9781C127.335 14.2772 127.423 14.5764 127.609 14.8121C127.796 15.0477 128.067 15.2012 128.365 15.2398C128.663 15.2784 128.965 15.1991 129.205 15.0187C129.446 14.8383 129.606 14.5712 129.653 14.2742C131.699 4.60546 119.949 -0.299588 111.886 0.0141589Z" fill="black"/>
<path d="M119.392 15.5645C114.701 6.09018 103.181 1.86564 93.15 2.56163C85.2113 3.11179 68.2115 7.8423 67.0537 17.3519C66.8615 18.9229 69.5615 19.3073 69.8222 17.7275C71.1369 9.73362 87.4185 5.57537 94.2326 5.32128C98.7462 5.0301 103.257 5.92735 107.316 7.92353C111.375 9.91972 114.839 12.9451 117.364 16.6979C117.518 16.9581 117.769 17.1477 118.061 17.2262C118.354 17.3047 118.665 17.2659 118.929 17.1182C119.194 16.9705 119.39 16.7255 119.476 16.4353C119.563 16.1451 119.532 15.8327 119.392 15.5645Z" fill="black"/>
<path d="M101.913 19.7824C94.0075 14.7116 82.0851 13.8366 73.9763 18.9604C65.114 24.5571 66.0509 36.8087 72.2087 44.0977C72.4299 44.3723 72.7511 44.5477 73.1016 44.5854C73.4522 44.6231 73.8034 44.52 74.0779 44.2988C74.3524 44.0776 74.5279 43.7564 74.5656 43.4058C74.6033 43.0553 74.5002 42.7041 74.279 42.4296C69.4181 35.2753 67.3832 25.432 76.4885 20.6662C84.1487 16.6582 93.3667 18.2092 100.777 21.9035C102.006 22.5133 103.055 20.5159 101.913 19.7824Z" fill="black"/>
<path d="M134.304 48.6427C133.47 48.2224 132.541 48.0221 131.608 48.0607C130.674 48.0994 129.766 48.3758 128.968 48.8637C127.546 49.9463 128.429 51.1527 129.598 50.8655C130.973 50.5908 132.379 50.5001 133.778 50.5959C134.919 50.4943 135.562 49.542 134.304 48.6427Z" fill="black"/>
<path d="M115.665 49.7122C114.529 49.493 113.358 49.5204 112.234 49.7926C111.109 50.0648 110.055 50.5753 109.145 51.2898C108.142 52.1957 108.732 53.5236 109.841 53.1789C111.654 52.4993 113.581 52.1745 115.517 52.2222C118.206 52.4034 118.113 50.3309 115.665 49.7122Z" fill="black"/>
<path d="M134.732 40.0521C134.092 39.2585 133.271 38.6301 132.338 38.2198C131.404 37.8095 130.386 37.6293 129.368 37.6942C128.351 37.7592 127.364 38.0674 126.49 38.5931C125.617 39.1187 124.882 39.8464 124.348 40.715C124.204 40.9755 124.159 41.2786 124.219 41.5697C124.279 41.8608 124.442 42.1209 124.677 42.3031C124.912 42.4853 125.204 42.5777 125.501 42.5636C125.798 42.5495 126.08 42.4299 126.297 42.2263C126.685 41.6667 127.19 41.1975 127.777 40.8507C128.363 40.5039 129.018 40.2876 129.696 40.2165C130.373 40.1454 131.058 40.2212 131.704 40.4388C132.35 40.6564 132.941 41.0106 133.438 41.4773C134.52 42.2417 135.477 41.2563 134.732 40.0521Z" fill="black"/>
<path d="M116.524 41.0355C115.435 40.322 114.212 39.8361 112.93 39.6072C111.648 39.3782 110.333 39.4108 109.064 39.703C107.795 39.9953 106.598 40.5411 105.545 41.3078C104.492 42.0744 103.606 43.046 102.938 44.1641C102.759 44.4278 102.691 44.7519 102.751 45.0652C102.811 45.3784 102.992 45.6551 103.256 45.8345C103.52 46.0138 103.844 46.081 104.157 46.0213C104.47 45.9616 104.747 45.78 104.926 45.5163C105.975 43.9115 107.615 42.7859 109.489 42.3849C111.363 41.9839 113.32 42.3399 114.933 43.3753C116.453 44.3784 118.066 42.0076 116.524 41.0355Z" fill="black"/>
<path d="M131.606 76.5242C130.365 76.255 129.074 76.3361 127.877 76.7584C127.613 76.8296 127.382 76.9889 127.221 77.2097C127.061 77.4305 126.981 77.6996 126.995 77.9722C127.008 78.2448 127.115 78.5045 127.297 78.7081C127.478 78.9118 127.724 79.0471 127.994 79.0916C129.974 79.4057 131.923 79.8899 133.82 80.5388C140.208 82.1318 133.778 77.0191 131.606 76.5242Z" fill="black"/>
<path d="M123.745 77.0501C121.597 76.6797 119.388 76.9766 117.415 77.9008C115.489 79.0347 113.702 80.3903 112.092 81.9397C109.555 83.862 111.301 84.4519 113.471 83.4864C115.309 82.6755 116.785 81.9397 118.61 81.257C120.499 80.7311 122.346 80.0619 124.134 79.2552C125.035 78.6896 124.704 77.492 123.745 77.0501Z" fill="black"/>
<path d="M125.082 47.5093C124.474 46.2057 122.315 46.8022 122.888 48.192C125.926 55.3637 127.529 63.0617 127.605 70.8503C127.642 74.3854 121.902 70.7243 119.324 69.9488C119.067 69.8988 118.801 69.9337 118.566 70.0482C118.33 70.1626 118.139 70.3505 118.019 70.5834C117.9 70.8163 117.86 71.0816 117.905 71.3394C117.949 71.5971 118.077 71.8334 118.268 72.0125C119.719 73.0082 121.319 73.7695 123.007 74.2683C126.938 75.6758 130.232 76.3828 130.256 70.7332C130.176 62.715 128.413 54.8031 125.082 47.5093Z" fill="black"/>
<path d="M80.1451 274.604C104.62 286.315 140.409 298.988 167.378 300.444C167.599 267.176 169.103 151.03 169.103 139.424C156.673 134.808 143.853 131.32 130.798 128.999C133.869 159.269 128.672 187.675 128.575 217.472C128.504 239.447 129.154 261.398 129.101 283.33C129.101 284.773 126.933 285.097 126.818 283.593C125.254 263.168 125.051 242.64 125.221 222.169C115.194 197.909 87.7435 144.512 72.613 128.242C53.5827 133.829 26.6557 146.335 17.0931 159.495C3.12911 178.686 -3.86391 269.828 4.51667 291.478C12.8972 313.129 101.352 352.062 127.143 358.697C127.143 336.879 138.204 311.509 143.688 302.548C120.459 294.905 97.0919 287.727 75.4588 276.566C65.7569 271.562 57.9707 265.09 58.2668 253.979C58.7087 237.485 59.5395 215.183 62.8338 199.151C62.8864 198.842 63.0576 198.567 63.3107 198.384C63.5638 198.2 63.8786 198.123 64.1878 198.169C64.497 198.215 64.7758 198.38 64.9647 198.63C65.1535 198.879 65.2372 199.192 65.198 199.502C62.7079 216.652 62.8736 234.089 61.5346 251.376C60.4851 264.945 68.8082 269.182 80.1451 274.604ZM130.928 229.197C135.992 218.17 140.871 207.449 144.978 196.029C148.246 186.97 150.25 184.842 142.674 177.562C139.735 174.74 136.907 171.304 142.316 169.323C144.892 168.377 151.631 167.155 151.092 164.02C150.292 159.395 141.699 144.486 139.185 139.742C138.489 138.43 140.289 137.091 141.14 138.396C145.726 145.6 149.688 153.182 152.981 161.061C154.086 163.596 154.72 166.47 152.232 168.41C150.153 169.712 147.878 170.668 145.493 171.24C141.556 172.263 142.311 173.145 145.652 176.481C153.418 184.23 150.621 188.739 147.265 197.964C143.351 209.049 138.66 219.843 133.226 230.267C133.07 230.548 132.813 230.759 132.508 230.859C132.202 230.958 131.87 230.938 131.579 230.802C131.287 230.667 131.058 230.426 130.938 230.128C130.817 229.83 130.813 229.498 130.928 229.197ZM64.7759 163.067C63.3287 158.587 66.2298 145.721 67.6483 141.346C68.0902 139.981 70.2555 140.734 69.9307 142.102C68.7994 146.89 66.5877 156.211 67.0804 161.063C67.4649 164.839 70.9183 165.065 81.4421 168.467C89.6172 171.119 87.5403 174.84 87.0232 181.945C86.2123 193.134 85.4037 193.161 94.0936 200.505C102.426 207.544 111.007 215.766 119.64 222.213C121.027 223.249 119.31 225.264 117.96 224.279C108.745 217.545 97.0432 207.209 88.6273 199.506C82.4408 193.848 83.8482 188.527 84.3895 181.026C84.7475 176.07 86.5835 173.127 80.9715 171.274C77.5004 170.127 73.9873 169.115 70.5361 167.911C69.2612 167.617 68.0744 167.024 67.073 166.182C66.0717 165.34 65.2844 164.273 64.7759 163.067Z" fill="#50BB50"/>
</svg>
