<svg width="50" height="31" viewBox="0 0 50 31" fill="none" xmlns="http://www.w3.org/2000/svg">
<path d="M0.167463 10.1952L0 0H8.20567V3.56101L4.55499 3.69109V4.40655L8.20567 4.53663V7.82122L4.55499 7.85374V10.1952H0.167463Z" fill="black"/>
<path d="M9.34115 9.73994L9.03971 0.0325212L17.4798 0L17.6306 3.04068L13.6282 3.25207L13.6449 3.7724L17.5971 4.00004L17.4463 6.16266L13.9631 6.53665L13.9799 6.9269L17.4631 7.25211L17.4966 10.2115H9.81004L9.34115 9.73994Z" fill="black"/>
<path d="M17.9762 10.1952L20.9068 0L26.8517 0.0975617L30.0503 10.1952H24.7082L23.8039 7.52853H23.536L22.6819 10.1952H17.9762ZM24.7584 4.84558C24.6915 4.34151 24.5407 3.91874 24.1891 3.62605C23.9546 3.62605 23.6197 4.48785 23.5527 4.99192C24.0049 4.99192 24.3565 4.91062 24.7584 4.84558Z" fill="black"/>
<path d="M30.5286 10.179L30.5118 6.52039H33.4089L30.5956 3.05694L30.6793 1.59351C31.031 0.634153 31.952 0.276426 32.9066 0.0325212L38.885 0L38.9687 3.80492L36.4568 3.83744L39.0022 7.05698L39.1529 8.45537C38.8012 9.46351 37.8634 9.98384 36.8419 10.1627L30.5286 10.179Z" fill="black"/>
<path d="M42.4794 10.1952L42.2952 4.13012L39.6828 4.26021V0H49.8645V3.96752L47.1516 4.06508V10.1952H42.4794Z" fill="black"/>
<path d="M0 21.7897L0.289074 12.023H7.25897C8.20649 12.1788 9.81245 12.9265 9.86063 14.2038C9.87669 14.7178 9.79639 15.8394 9.52338 16.2288L8.19043 16.883L9.61974 17.3503C9.92487 17.7865 10.0855 18.7834 10.0855 19.5155C10.0855 20.8707 8.59192 21.7274 7.16261 21.7897H0ZM4.94638 15.3876C5.05879 15.372 5.17121 15.372 5.26757 15.3253C5.47635 15.1384 5.54058 15.1696 5.34787 14.6711C4.99455 14.5621 4.67336 14.4374 4.32005 14.6711C4.19157 14.8892 4.25581 15.0761 4.32005 15.263C4.51277 15.372 4.7376 15.3876 4.94638 15.3876ZM5.37999 19.4065C5.41211 19.2974 5.41211 19.2195 5.41211 19.1261C5.41211 18.9703 5.39605 18.799 5.23545 18.6899C5.10697 18.5965 4.99455 18.5653 4.86608 18.5342C4.6573 18.4563 4.36823 18.4407 4.15945 18.5965C4.06309 18.8768 3.9828 19.0638 4.23975 19.4999C4.41641 19.5934 4.72154 19.7647 5.37999 19.4065Z" fill="black"/>
<path d="M11.1381 21.3536L10.8491 12.0542L18.9431 12.023L19.0877 14.9359L15.2494 15.1384L15.2655 15.6369L19.0555 15.8549L18.911 17.9267L15.5706 18.2849L15.5867 18.6588L18.9271 18.9703L18.9592 21.8053H11.5878L11.1381 21.3536Z" fill="black"/>
<path d="M19.4191 21.7897L22.2296 12.023L27.9308 12.1165L30.9982 21.7897H25.8751L25.0079 19.2351H24.7509L23.9319 21.7897H19.4191ZM25.9233 16.6649C25.8591 16.182 25.7145 15.777 25.3773 15.4967C25.1524 15.4967 24.8312 16.3222 24.767 16.8051C25.2006 16.8051 25.5379 16.7272 25.9233 16.6649Z" fill="black"/>
<path d="M31.4569 21.7741L31.4408 18.2693H34.2191L31.5211 14.9515L31.6014 13.5496C31.9387 12.6305 32.8219 12.2878 33.7373 12.0542L39.4706 12.023L39.5509 15.668L37.142 15.6992L39.583 18.7834L39.7276 20.123C39.3903 21.0888 38.491 21.5872 37.5114 21.7586L31.4569 21.7741Z" fill="black"/>
<path d="M42.9177 21.7897L42.741 15.9795L40.2357 16.1042V12.023H50V15.8238L47.3983 15.9172V21.7897H42.9177Z" fill="black"/>
<path d="M0 30.6591V23.6396H3.81434C4.57023 23.7872 5.12843 23.969 5.675 24.7073L5.66337 26.57C5.32612 27.1153 5.07028 27.4446 4.61675 27.6037L6.51229 30.6591H4.33765L2.17464 27.8536V30.6591H0ZM3.52361 25.9113C3.45384 25.3433 3.23289 25.1616 2.40722 25.1616C1.88391 25.5591 2.0002 25.8772 2.40722 26.2747C3.17474 26.5133 3.38407 26.2179 3.52361 25.9113Z" fill="black"/>
<path d="M7.62659 30.5796V23.6509L12.3364 23.6282L12.1968 25.4569L9.53376 25.5819L9.56865 26.2293L12.2085 26.3997V27.899L9.68494 28.0353L9.73146 28.7054L12.2317 28.9326L12.2433 30.6364H8.81276L7.62659 30.5796Z" fill="black"/>
<path d="M18.1526 30.6591L15.6872 30.625C14.4778 30.2729 13.8265 28.8077 13.8265 28.0239C13.8265 27.5355 13.8033 26.093 13.8382 25.5932C14.2336 24.7868 15.0708 24.0144 15.9895 23.6736L18.1642 23.6282C18.8852 23.7191 19.6178 24.287 20.1411 24.764L18.6526 25.7295C18.1293 25.6046 17.7688 25.4001 17.0943 25.4796C16.2105 25.6954 15.7337 26.536 15.7337 27.1493C16.0593 28.2511 16.5361 28.7622 17.3501 28.785C17.8618 28.785 18.3619 28.4896 19.0015 27.9671L20.583 28.8872C19.6527 30.0003 18.9782 30.2275 18.1526 30.6591Z" fill="black"/>
<path d="M21.6154 30.6477L21.5456 23.6623L26.3601 23.6168L26.3833 25.4569L23.7203 25.5705L23.5807 26.2861L26.3833 26.3883L26.4298 27.8763L23.6854 28.0466L23.7086 28.7054L26.4298 28.9213L26.2438 30.6591L22.7434 30.6364L21.6154 30.6477Z" fill="black"/>
<path d="M28.0479 30.6591L28.0595 23.6396H29.99C30.3388 23.6396 31.3738 23.6282 32.0367 23.9462C32.6879 24.2643 33.4554 24.7981 33.4554 25.8885C33.4554 26.8767 33.0833 27.5696 32.5716 28.1375C32.0134 28.4328 31.0133 28.5805 30.0365 28.5691L29.9551 30.6591H28.0479ZM31.5366 26.2747C31.4436 25.7182 31.1645 25.4228 30.3272 25.4228C30.0016 25.8317 29.8969 26.411 30.3156 26.7972C31.0947 27.0357 31.3971 26.5928 31.5366 26.2747Z" fill="black"/>
<path d="M34.9934 30.6477L34.8771 23.6396H37.0866L37.1215 30.6591L34.9934 30.6477Z" fill="black"/>
<path d="M38.9856 30.3638L38.9275 23.6396L43.4977 23.6509L43.614 25.4342L40.9974 25.5819L40.9044 26.2861L43.5558 26.411L43.4977 27.8763L41.0091 28.0807L41.0207 28.6941L43.5907 28.9213L43.6024 30.6818L39.4391 30.6477L38.9856 30.3638Z" fill="black"/>
<path d="M44.9879 30.6591L45.0693 28.7963H47.3486L45.0925 25.7636L45.1274 24.5482C45.3949 24.0257 45.9647 23.7759 46.488 23.6509L50 23.6623L49.9884 25.5819L47.5928 25.6046L49.8837 28.501L49.8721 29.6141C49.686 30.2388 49.2441 30.5114 48.8836 30.6705L44.9879 30.6591Z" fill="black"/>
</svg>
