<svg width="439" height="420" viewBox="0 0 439 420" fill="none" xmlns="http://www.w3.org/2000/svg">
<path d="M176.25 36.0613C196.673 31.5389 202.768 30.8875 209.362 27.118C209.43 27.0803 209.486 27.025 209.525 26.9578C209.563 26.8907 209.583 26.8143 209.582 26.7369C209.582 25.9493 208.547 25.515 208.032 25.0254C201.22 18.5581 199.832 7.96328 191.801 2.37832C189.74 0.904287 187.287 0.0780871 184.754 0.00526586C182.222 -0.0675554 179.725 0.616309 177.583 1.96949C173.413 5.06046 170.591 9.63453 169.697 14.747C168.05 21.7848 168.374 29.2568 165.239 35.9274C165.199 36.0078 165.182 36.0984 165.193 36.1879C165.203 36.2775 165.239 36.3621 165.297 36.4313C165.354 36.5005 165.431 36.5514 165.517 36.5776C165.604 36.6038 165.696 36.6042 165.782 36.5787C169.262 37.2513 172.853 37.0738 176.25 36.0613Z" fill="#50BB50"/>
<path d="M316.47 79.3713C314.391 59.1195 305.36 43.1545 285.829 36.5787C266.658 30.1276 243.907 35.4238 231.102 50.2062C230.002 51.4742 231.839 53.3359 232.95 52.054C243.953 39.4012 262.175 34.3151 278.435 37.3709C298.283 41.1035 308.367 53.3659 312.636 72.2804C324.466 124.698 262.006 148.763 234.717 116.397C227.506 107.85 222.286 96.3364 224.006 85.3212C224.26 83.6906 221.745 82.9537 221.477 84.6145C218.812 101.226 230.993 121.272 246.598 128.962C277.761 144.305 320.745 120.847 316.47 79.3713Z" fill="#50BB50"/>
<path d="M105.824 146.414C115.839 139.058 127.632 146.384 134.534 154.517C138.07 158.862 141.081 163.609 143.505 168.659C148.97 179.515 149.122 182.435 151.716 184.862C152.067 185.19 152.799 184.998 152.748 184.428C152.296 182.12 151.479 179.899 150.328 177.847C147.367 170.699 143.773 163.83 139.59 157.321C134.531 150.063 127.085 142.638 117.922 141.335C115.616 140.897 113.236 141.051 111.006 141.784C108.776 142.516 106.768 143.803 105.17 145.523C104.791 145.98 105.276 146.818 105.824 146.414Z" fill="black"/>
<path d="M180.235 174.798C177.396 172.223 176.101 170.479 172.867 171.863C166.777 174.303 161.071 177.608 155.925 181.677C154.948 182.495 156.221 184.118 157.285 183.444C162.512 179.882 168.033 176.772 173.786 174.145C174.204 173.967 174.666 173.919 175.112 174.006C175.558 174.093 175.967 174.312 176.288 174.634C179.296 177.137 182.048 179.933 184.503 182.98C179.039 190.729 173.364 198.757 164.82 203.342C143.339 214.863 129.956 192.334 125.046 188.472C124.94 188.376 124.804 188.32 124.661 188.314C124.518 188.308 124.377 188.352 124.263 188.44C124.15 188.527 124.071 188.651 124.04 188.791C124.009 188.931 124.028 189.077 124.094 189.204C125.439 191.558 127.064 193.741 128.933 195.704C134.156 201.725 140.521 207.174 148.335 208.726C158.801 210.805 168.892 205.262 176.013 197.986C180.171 193.525 183.936 188.713 187.268 183.606C187.409 183.357 187.466 183.069 187.432 182.785C187.397 182.501 187.273 182.236 187.076 182.028C185.004 179.43 182.715 177.011 180.235 174.798Z" fill="black"/>
<path d="M192.522 153.484C192.521 153.364 192.488 153.245 192.428 153.141C192.367 153.037 192.28 152.951 192.176 152.89C192.072 152.83 191.954 152.798 191.833 152.797C191.713 152.796 191.594 152.827 191.489 152.886C190.427 153.479 190.078 154.627 189.533 155.685C186.186 162.153 184.137 164.132 183.389 167.158C183.287 167.569 183.8 168.082 184.204 167.784C186.224 165.869 187.849 163.577 188.988 161.037C192.457 154.939 192.633 154.459 192.522 153.484Z" fill="black"/>
<path d="M198.669 151.5C197.973 152.594 197.442 153.785 197.092 155.034C195.251 159.43 193.071 163.677 190.571 167.735C190.509 167.851 190.49 167.986 190.518 168.114C190.547 168.243 190.62 168.357 190.726 168.436C190.831 168.515 190.962 168.554 191.093 168.544C191.225 168.535 191.348 168.479 191.442 168.387C194.607 164.964 197.122 160.993 198.863 156.669C199.634 155.285 200.115 153.759 200.277 152.184C200.245 151.417 199.21 150.816 198.669 151.5Z" fill="black"/>
<path d="M195.051 171.59C195.049 171.677 195.068 171.763 195.106 171.841C195.143 171.919 195.199 171.987 195.268 172.04C195.336 172.093 195.416 172.128 195.502 172.145C195.587 172.161 195.674 172.157 195.758 172.133C196.904 171.633 197.858 170.775 198.476 169.687C201.569 166.136 203.951 162.023 205.491 157.572C205.528 157.43 205.512 157.279 205.446 157.148C205.38 157.017 205.269 156.913 205.134 156.857C204.998 156.801 204.847 156.796 204.707 156.842C204.568 156.889 204.45 156.984 204.375 157.11C197.442 168.747 195.215 169.207 195.051 171.59Z" fill="black"/>
<path d="M209.049 165.691C209.164 165.121 208.428 164.553 207.989 165.065C205.751 168.301 203.016 171.163 199.886 173.547C193.77 177.979 190.455 177.967 189.855 180.208C189.812 180.377 189.836 180.557 189.922 180.709C190.008 180.86 190.15 180.973 190.317 181.023C192.042 181.64 194.391 179.711 195.835 178.903C200.678 176.198 207.949 171.147 209.049 165.691Z" fill="black"/>
<path d="M177.244 163.515C176.158 163.95 176.216 165.012 176.022 166.045C175.764 167.31 175.582 168.589 175.477 169.876C175.428 170.586 176.401 170.616 176.646 170.04C177.127 168.829 177.518 167.584 177.817 166.315C178.048 165.363 178.524 164.467 177.789 163.679C177.727 163.599 177.64 163.539 177.543 163.51C177.445 163.481 177.341 163.482 177.244 163.515Z" fill="black"/>
<path d="M253.205 177.545C229.278 147.675 195.692 122.804 186.915 115.258C184.49 113.179 181.723 110.8 178.323 110.8C174.572 110.8 171.285 114.147 168.645 116.454C166.925 117.956 165.282 119.545 163.723 121.212C162.017 122.652 160.738 124.533 160.027 126.65C159.2 130.948 163.591 134.667 166.199 137.443C172.814 144.673 180.029 151.329 187.767 157.341C188.338 157.776 189.04 156.831 188.527 156.362C183.31 151.593 167.162 136.397 163.598 130.779C161.205 127.015 163.162 125.278 167.566 120.965C170.23 118.235 173.205 115.827 176.429 113.789C179.609 112.318 182.714 114.944 184.993 116.914C200.469 130.23 222.439 145.116 252.609 180.314C253.707 181.405 254.583 182.698 255.191 184.121C256.651 188.567 251.135 194.083 247.851 197.388C246.65 198.742 245.189 199.842 243.555 200.621C240.072 202.03 237.575 198.46 235.009 196.272C219.217 182.763 217.741 180.596 209.209 173.406C208.204 172.56 206.763 173.949 207.74 174.872C225.599 191.768 230.902 195.942 233.269 198.009C235.789 200.213 239.593 205.486 245.176 202.386C247.994 200.465 250.451 198.063 252.436 195.291C255.022 192.876 256.782 189.708 257.464 186.236C257.785 182.684 255.297 180.155 253.205 177.545Z" fill="black"/>
<path d="M180.045 162.347C180.13 162.442 180.241 162.51 180.365 162.542C180.488 162.575 180.619 162.571 180.74 162.53C180.861 162.49 180.968 162.415 181.047 162.314C181.126 162.214 181.174 162.093 181.186 161.966C180.992 160.246 180.436 158.588 179.555 157.099C177.27 151.841 174.32 146.898 170.778 142.39C170.351 141.896 169.496 142.448 169.799 143.016C171.542 146.292 173.506 149.428 175.21 152.694C178.809 159.61 178.589 160.894 180.045 162.347Z" fill="black"/>
<path d="M226.072 201.197C224.418 197.443 222.859 193.614 221.016 189.941C220.47 188.856 218.588 189.618 219.031 190.784C221.277 196.697 223.381 200.61 228.22 211.609C229.018 212.978 229.527 214.496 229.716 216.069C229.689 217.591 228.439 218.356 227.215 218.949C225.598 219.737 216.128 223.37 212.017 224.659C208.291 225.828 207.37 224.784 205.873 221.398C200.849 210.031 194.751 194.766 189.506 184.673C189.443 184.565 189.343 184.485 189.224 184.447C189.106 184.408 188.977 184.415 188.863 184.465C188.749 184.515 188.658 184.605 188.606 184.719C188.554 184.832 188.546 184.96 188.582 185.079C190.906 191.918 193.747 198.564 196.546 205.225C203.475 221.728 203.212 221.645 204.676 224.257C205.209 225.365 206.091 226.269 207.186 226.828C208.281 227.388 209.529 227.574 210.739 227.357C214.847 226.336 218.859 224.962 222.729 223.25C225.284 222.245 228.818 221.402 230.776 219.324C232.735 217.245 232.045 214.473 230.994 212.119C229.374 208.47 227.679 204.839 226.072 201.197Z" fill="black"/>
<path d="M113.409 399.745C112.598 403.551 111.21 407.598 111.914 411.543C112.188 413.222 113.002 414.766 114.234 415.939C115.465 417.112 117.047 417.851 118.737 418.042C127.877 419.347 137.1 419.974 146.332 419.918C150.383 420.02 154.707 420.324 158.458 418.449C160.013 417.801 161.287 416.622 162.054 415.122C162.82 413.622 163.03 411.899 162.646 410.259C161.431 406.369 157.333 406.762 154.162 405.937C146.669 403.988 140.072 394.836 133.446 395.795C131.637 396.199 129.996 397.148 128.743 398.514C127.731 399.437 125.542 401.528 124.23 399.927C122.918 398.326 120.689 400.62 121.973 402.184C122.895 403.075 124.11 403.6 125.391 403.661C126.672 403.721 127.931 403.313 128.933 402.512C131.974 400.498 132.522 397.407 137.497 399.902C143.017 402.673 147.415 407.591 153.536 409.062C155.073 409.244 156.599 409.516 158.105 409.877C158.461 410 158.784 410.204 159.048 410.473C159.312 410.742 159.509 411.068 159.625 411.427C159.741 411.785 159.773 412.166 159.716 412.538C159.66 412.911 159.518 413.265 159.301 413.573C157.476 416.862 152.603 416.858 149.369 416.807C141.35 416.684 133.277 416.439 125.283 415.666C121.858 415.333 116.37 415.666 115.196 411.587C114.06 407.644 116.351 403.711 115.088 399.761C114.845 398.985 113.6 398.848 113.409 399.745Z" fill="black"/>
<path d="M91.9304 397.869C90.7177 400.584 90.0611 403.514 89.9994 406.487C89.7156 407.693 89.6876 408.945 89.9171 410.163C90.1467 411.381 90.6287 412.537 91.3321 413.557C93.0718 415.132 95.3497 415.978 97.6955 415.922C99.3262 416.056 100.985 416.111 102.615 416.111C104.067 416.259 105.531 416.015 106.856 415.405C107.018 415.308 107.152 415.17 107.246 415.006C107.339 414.842 107.388 414.656 107.388 414.467C107.388 414.278 107.339 414.092 107.246 413.928C107.152 413.764 107.018 413.626 106.856 413.529C103.652 412.125 96.3997 413.883 93.889 411.681C92.3392 410.323 92.8081 407.441 92.9374 405.618C93.3265 403.206 93.5802 400.774 93.6973 398.333C93.6827 398.133 93.6056 397.941 93.477 397.787C93.3483 397.632 93.1745 397.521 92.9797 397.47C92.785 397.419 92.5792 397.43 92.391 397.501C92.2029 397.573 92.0418 397.701 91.9304 397.869Z" fill="black"/>
<path d="M324.705 143.342C313.478 143.261 302.167 142.448 290.939 142.908C286.264 143.099 281.628 144.428 280.282 149.46C279.297 155.285 279.205 161.225 280.009 167.077C280.603 171.807 281.097 178.395 285.911 180.861C289.186 182.543 287.966 182.123 341.072 183.552C366.763 184.245 392.485 184.82 418.176 183.878C423.9 183.668 429.861 184.074 432.64 180.861C434.047 178.789 434.761 176.323 434.677 173.819C435.203 167.612 435.039 161.366 434.187 155.196C434.132 152.662 433.39 150.192 432.041 148.047C429.27 144.619 423.708 145.275 416.924 145.164C391.205 144.702 333.297 143.654 330.089 143.587C329.732 143.587 329.39 143.729 329.137 143.981C328.885 144.234 328.743 144.576 328.743 144.933C328.743 145.291 328.885 145.633 329.137 145.886C329.39 146.138 329.732 146.28 330.089 146.28C353.769 146.654 413.173 147.698 419.153 147.802C426.528 147.929 430.228 146.911 431.307 153.646C432.2 159.382 432.482 165.196 432.15 170.992C432.018 173.44 432.235 177.032 430.6 179.011C429.136 180.783 426.385 180.813 424.264 180.915C400.615 182.069 376.933 181.691 353.251 181.134C341.425 180.855 294.066 179.623 291.265 179.42C284.594 178.933 284.024 175.533 282.95 168.899C282.051 163.206 281.923 157.417 282.571 151.689C283.432 145.813 287.583 145.712 293.526 145.545C303.689 145.261 317.3 145.901 324.657 144.783C325.578 144.638 325.657 143.349 324.705 143.342Z" fill="black"/>
<path d="M438.077 278.273C438.023 275.735 437.281 273.261 435.929 271.112C433.158 267.687 427.596 268.352 420.812 268.232C395.093 267.77 337.185 266.719 333.977 266.655C333.63 266.669 333.302 266.817 333.061 267.068C332.821 267.319 332.686 267.653 332.686 268C332.686 268.348 332.821 268.682 333.061 268.932C333.302 269.183 333.63 269.331 333.977 269.346C357.657 269.722 417.061 270.764 423.043 270.868C430.418 270.997 434.116 269.976 435.195 276.714C436.088 282.45 436.37 288.264 436.038 294.06C435.906 296.506 436.123 300.1 434.488 302.079C433.024 303.851 430.275 303.879 428.152 303.982C404.503 305.137 380.821 304.759 357.141 304.2C345.313 303.922 297.954 302.691 295.155 302.488C288.484 302.001 287.911 298.598 286.84 291.965C285.94 286.272 285.812 280.484 286.459 274.757C287.32 268.874 291.485 268.777 297.414 268.611C308.069 268.315 319.449 268.999 328.545 267.851C328.732 267.851 328.912 267.777 329.044 267.644C329.177 267.512 329.251 267.332 329.251 267.144C329.251 266.957 329.177 266.777 329.044 266.645C328.912 266.512 328.732 266.438 328.545 266.438C317.317 266.19 306.006 265.541 294.778 266.001C290.101 266.193 285.468 267.521 284.121 272.554C283.135 278.378 283.043 284.318 283.849 290.17C284.44 294.903 284.934 301.488 289.748 303.955C293.025 305.636 291.806 305.218 344.911 306.646C370.603 307.339 396.322 307.916 422.013 306.974C427.739 306.763 433.7 307.17 436.477 303.955C437.871 301.877 438.584 299.416 438.516 296.915C439.096 290.705 438.949 284.448 438.077 278.273Z" fill="black"/>
<path d="M260.817 275.201C260.764 272.663 260.021 270.188 258.669 268.041C255.897 264.615 250.338 265.281 243.554 265.158C217.835 264.696 159.927 263.648 156.719 263.583C156.372 263.597 156.044 263.745 155.803 263.996C155.563 264.247 155.428 264.581 155.428 264.928C155.428 265.276 155.563 265.61 155.803 265.861C156.044 266.111 156.372 266.259 156.719 266.274C180.399 266.65 239.803 267.692 245.783 267.796C253.158 267.923 256.87 266.904 257.937 273.642C258.83 279.378 259.112 285.192 258.778 290.988C258.648 293.434 258.865 297.028 257.228 299.007C255.766 300.779 253.015 300.807 250.894 300.911C218.759 302.472 182.678 301.271 138.359 300.049C138.359 291.916 138.336 273.579 137.844 265.468C142.333 265.53 146.821 265.298 151.28 264.775C151.467 264.775 151.647 264.7 151.779 264.568C151.912 264.435 151.987 264.255 151.987 264.068C151.987 263.88 151.912 263.701 151.779 263.568C151.647 263.436 151.467 263.361 151.28 263.361C146.755 263.262 142.216 263.095 137.675 262.966C136.925 254.466 135.575 246.03 133.636 237.721C131.46 227.773 129.351 216.471 123.935 208.059C122.746 206.169 121.337 204.426 119.738 202.867C119.816 202.576 121.558 194.833 121.678 194.302C122.564 190.964 123.218 187.568 123.637 184.139C123.697 183.432 122.685 183.379 122.468 183.977C121.376 187.298 120.495 190.685 119.83 194.117C119.454 195.778 118.151 201.277 117.939 202.382C109.769 202.472 110.206 203.007 96.5573 203.007C97.2212 204.121 98.0152 205.153 98.9224 206.079C99.0585 206.222 99.1608 206.394 99.2218 206.582C99.2829 206.769 99.3011 206.968 99.2752 207.164C99.2492 207.359 99.1798 207.547 99.072 207.712C98.9642 207.877 98.8208 208.016 98.6522 208.119C95.7485 210.063 92.421 211.283 88.9487 211.675C85.4763 212.068 81.9605 211.622 78.696 210.376C77.4487 209.888 76.6172 209.452 74.3999 208.553C58.5227 269.438 76.5803 282.788 77.6889 305.666C78.3195 318.661 76.5641 331.741 78.2063 344.701C79.9525 358.474 84.5212 370.951 89.0275 385.018C89.3312 386.773 90.0276 388.436 91.0647 389.884C92.4782 391.328 94.6817 391.002 96.585 391.136C101.817 391.501 105.803 391.626 110.885 391.626C109.203 385.798 105.993 368.11 104.986 361.599C100.087 329.979 103.875 316.984 104.604 308.203C105.341 299.365 102.976 290.558 100.99 282.022C99.2407 273.971 96.607 266.139 93.1365 258.668C93.0333 258.467 93.0108 258.234 93.0736 258.017C93.1365 257.8 93.2799 257.616 93.4745 257.501C93.6691 257.386 93.9002 257.351 94.1203 257.401C94.3405 257.451 94.5331 257.584 94.6586 257.772C100.043 265.29 102.382 274.545 104.42 283.435C106.406 292.108 108.524 300.809 107.492 309.752C105.992 318.761 105.345 327.891 105.561 337.021C106.171 350.797 107.952 364.495 110.885 377.968C111.785 382.426 113.495 391.508 113.495 391.561C117.257 391.485 119.983 391.39 124.614 391.044C131.822 390.506 133.917 391.291 134.546 386.26C134.726 385.972 134.837 385.647 134.871 385.309C137.428 357.862 138.29 330.337 138.366 302.788C179.874 303.927 212.878 305.08 244.762 303.911C250.486 303.701 256.447 304.107 259.226 300.892C260.633 298.819 261.347 296.354 261.265 293.85C261.768 287.635 261.618 281.384 260.817 275.201Z" fill="black"/>
<path d="M233.115 209.814C240.767 209.99 363.241 210.161 420.814 211.147C422.426 210.992 424.052 211.203 425.571 211.762C427.091 212.322 428.464 213.217 429.591 214.381C431.505 216.764 432.712 219.637 433.071 222.673C434.132 229.077 436.723 239.363 430.679 243.091C423.999 247.209 404.498 246.29 397.238 246.107C384.001 245.775 372.099 246.354 318.423 245.701C277.136 245.197 176.44 248.043 144.499 247.031C142.813 246.978 142.84 249.56 144.499 249.641C162.903 250.565 181.473 249.805 199.877 249.588C218.124 249.371 408.078 249.101 416.044 248.581C419.779 248.381 423.488 247.854 427.131 247.006C429.845 246.56 432.343 245.247 434.249 243.264C437.555 239.337 437.215 233.667 436.587 228.944C435.894 223.631 435.333 217.693 431.884 213.339C430.159 211.109 427.689 209.574 424.925 209.015C421.922 208.451 235.367 208.063 233.2 208.172C232.999 208.188 232.811 208.276 232.671 208.42C232.53 208.564 232.447 208.755 232.436 208.956C232.426 209.157 232.489 209.355 232.614 209.513C232.739 209.671 232.917 209.778 233.115 209.814Z" fill="black"/>
<path d="M190.108 142.635C188.57 143.097 187.526 145.121 187.824 143.506C188.071 142.173 189 141.196 188.748 139.755C188.666 139.235 188.413 138.758 188.029 138.398C187.645 138.038 187.152 137.817 186.628 137.769C186.006 137.801 185.402 137.984 184.867 138.302C184.332 138.619 183.882 139.062 183.556 139.591C183.285 139.919 183.04 140.439 182.576 140.515C182.061 140.603 182.218 140.353 182.17 139.755C182.053 138.505 182.08 137.246 182.251 136.002C183.096 134.989 183.717 133.808 184.073 132.537C184.138 132.292 184.12 132.032 184.022 131.798C183.925 131.564 183.753 131.369 183.533 131.242C183.313 131.116 183.058 131.065 182.807 131.098C182.555 131.13 182.322 131.245 182.142 131.424C181.064 132.453 180.332 133.792 180.049 135.256C178.176 137.129 175.61 137.284 175.264 134.794C175.122 133.504 175.195 132.2 175.481 130.934C177.729 129.532 179.663 127.681 181.163 125.497C182.036 124.222 183.907 121.612 181.708 120.603C177.781 118.803 174.534 125.721 173.552 129.982C172.158 130.716 170.724 131.369 169.256 131.939C168.711 132.17 168.711 133.14 169.418 133.094C170.709 132.966 171.975 132.645 173.171 132.142C172.903 133.101 172.857 134.109 173.035 135.088C173.214 136.068 173.614 136.994 174.203 137.796C174.904 138.568 175.87 139.047 176.908 139.137C177.946 139.228 178.981 138.924 179.805 138.286C179.805 140.039 179.77 141.799 180.946 142.691C181.479 143.015 182.108 143.146 182.726 143.062C183.345 142.977 183.916 142.683 184.343 142.229C184.891 141.767 185.242 140.949 185.84 140.57C186.953 139.861 186.159 141.464 185.948 141.956C185.675 142.47 185.509 143.034 185.461 143.615C185.414 144.195 185.485 144.779 185.671 145.331C185.889 145.813 186.271 146.203 186.748 146.432C187.226 146.661 187.769 146.713 188.281 146.58C189.489 146.282 190.06 145.257 190.591 145.058C191.654 144.661 192.284 145.603 192.058 146.58C191.794 147.724 193.529 148.592 194.044 147.423C194.343 146.837 194.464 146.176 194.393 145.522C194.322 144.868 194.061 144.249 193.643 143.741C193.226 143.233 192.669 142.858 192.041 142.661C191.413 142.465 190.741 142.456 190.108 142.635ZM179.777 122.517C181.107 121.806 180.948 122.3 180.375 123.305C179.345 125.154 177.97 126.788 176.324 128.118C176.982 125.99 178.173 124.064 179.777 122.517Z" fill="#50BB50"/>
<path d="M237.192 187.74C236.938 185.4 236.25 183.146 236.105 180.753C236.012 179.231 236.539 176.81 235.398 175.586C233.954 174.039 232.395 174.988 231.157 176.538C231.102 174.907 230.979 173.304 230.776 171.671C230.77 171.491 230.725 171.314 230.642 171.154C230.56 170.994 230.442 170.854 230.299 170.745C230.156 170.635 229.99 170.559 229.813 170.522C229.637 170.485 229.454 170.488 229.279 170.53C226.046 171.096 225.852 175.24 224.902 176.73C224.44 173.87 223.786 171.045 222.946 168.274C222.588 166.807 220.518 167.458 220.742 168.872C221.141 170.303 221.085 171.823 220.581 173.221C220.119 174.066 218.948 174.826 218.079 174.173C216.201 172.761 219.384 168.518 220.444 167.458C221.015 166.888 220.227 165.774 219.546 166.289C217.71 167.564 216.359 169.423 215.714 171.563C214.435 176.602 219.613 178.141 222.156 174.879C222.156 174.852 222.184 174.852 222.184 174.826C222.586 176.231 222.664 178.753 224.387 179.256C227.214 180.099 227.351 175.886 228.628 173.847C228.784 176.327 228.784 178.815 228.628 181.296C228.54 182.737 230.647 182.913 231.074 181.622C231.468 180.186 232.194 178.864 233.194 177.762C233.952 177.051 233.753 177.598 233.739 178.36C233.571 181.721 234.061 185.082 235.181 188.255C235.559 189.29 237.308 188.826 237.192 187.74Z" fill="#50BB50"/>
<path d="M212.722 207.722C211.711 205.957 213.457 204.569 214.244 203.128C215.399 201.035 215.307 197.903 212.477 197.365C211.004 197.083 208.047 198.739 208.398 196.277C211.043 195.265 215.039 192.565 214.191 189.833C214.02 189.421 213.753 189.057 213.411 188.771C213.07 188.486 212.665 188.286 212.23 188.19C211.795 188.094 211.343 188.104 210.913 188.219C210.483 188.335 210.087 188.552 209.759 188.853C208.077 190.379 206.942 192.412 206.525 194.644C205.545 194.944 204.547 195.181 203.536 195.353C202.612 195.508 202.966 196.757 203.726 196.847C204.558 196.947 205.4 196.928 206.227 196.792C206.154 197.45 206.327 198.112 206.714 198.649C207.1 199.187 207.673 199.562 208.32 199.702C209.867 200.037 213.697 198.395 212.535 201.497C211.771 203.534 209.687 204.899 210.114 207.315C210.403 208.932 211.551 209.994 214.764 213.866C215.75 215.055 217.503 213.332 216.476 212.154C215.089 210.797 213.832 209.313 212.722 207.722ZM210.928 190.812C211.2 190.974 211.445 191.138 211.717 191.327C211.053 192.157 210.242 192.858 209.325 193.394C209.509 192.962 210.542 190.888 210.928 190.812Z" fill="#50BB50"/>
<path d="M420.188 226.807C418.53 226.916 416.897 227.08 415.266 227.324C416.19 225.229 417.072 223.114 417.848 220.961C418.153 220.12 416.899 219.686 416.462 220.365C415.217 222.298 414.07 224.361 412.982 226.454C411.256 223.738 409.387 221.117 407.383 218.6C406.838 217.921 405.828 218.794 406.214 219.499C407.796 222.391 409.531 225.209 411.27 228.045C409.311 228.426 407.357 228.902 405.452 229.378C404.664 229.574 404.798 230.916 405.641 230.817C407.489 230.604 409.311 230.438 411.162 230.274C409.965 232.856 408.884 235.496 407.817 238.049C407.304 239.275 409.448 240.197 409.993 238.972C411.078 236.524 412.222 234.106 413.335 231.657C414.28 233.46 415.334 235.203 416.49 236.877C416.653 237.14 416.911 237.329 417.211 237.403C417.511 237.478 417.828 237.432 418.094 237.276C418.361 237.119 418.556 236.865 418.637 236.567C418.718 236.269 418.68 235.951 418.53 235.681C417.608 233.67 416.516 231.742 415.266 229.918C416.924 229.754 418.557 229.625 420.213 229.429C421.791 229.232 421.872 226.698 420.188 226.807Z" fill="#50BB50"/>
<path d="M423.505 162.536C421.845 162.631 420.214 162.809 418.583 163.053C419.507 160.961 420.39 158.843 421.166 156.692C421.471 155.852 420.216 155.415 419.78 156.094C418.535 158.027 417.387 160.09 416.299 162.183C414.574 159.467 412.705 156.846 410.7 154.329C410.155 153.65 409.146 154.521 409.531 155.226C411.114 158.12 412.848 160.935 414.587 163.772C412.629 164.153 410.675 164.629 408.769 165.104C407.982 165.301 408.116 166.643 408.959 166.546C410.806 166.331 412.629 166.165 414.479 166.001C413.282 168.583 412.202 171.225 411.134 173.778C410.622 175.002 412.765 175.926 413.31 174.701C414.396 172.255 415.539 169.835 416.652 167.389C417.599 169.19 418.652 170.934 419.807 172.609C419.97 172.872 420.229 173.06 420.529 173.135C420.828 173.209 421.145 173.163 421.412 173.007C421.678 172.851 421.873 172.596 421.954 172.298C422.036 172 421.997 171.682 421.847 171.412C420.927 169.398 419.835 167.466 418.583 165.638C420.242 165.476 421.875 165.342 423.531 165.148C425.136 164.964 425.189 162.441 423.505 162.536Z" fill="#50BB50"/>
<path d="M334.902 375.467C334.888 366.07 334.308 356.682 333.163 347.355C332.354 341.862 330.502 338.557 324.924 338.412C321.799 338.329 318.644 338.356 315.519 338.329C158.241 336.991 247.46 336.379 219.031 337.241C215.105 337.361 210.682 337.347 208.021 340.749C204.727 344.96 205.274 351.57 205.274 356.626C205.274 363.729 206 385.537 209.596 391.67C212.402 396.453 217.752 395.945 222.565 396.074C262.173 397.132 291.086 398.555 319.325 396.155C326.123 395.578 330.345 395.809 332.837 392.24C335.285 388.736 334.93 382.599 334.902 375.467ZM308.966 351.459C305.979 355.545 304.032 355.398 289.102 367.69C282.376 373.233 275.8 378.938 269.499 384.955C269.14 385.296 268.663 385.486 268.168 385.486C267.672 385.486 267.196 385.296 266.836 384.955C261.315 380.389 256.194 375.359 251.529 369.921C249.956 368.401 248.769 366.528 248.065 364.456C247.961 363.803 248.501 362.93 249.289 363.232C251.705 364.156 252.802 366.45 258.99 372.721C261.893 375.663 264.942 378.43 268.097 381.093C277.676 372.122 286.977 364.272 296.724 356.735C300.036 354.173 303.464 350.85 307.545 349.612C308.525 349.316 309.599 350.596 308.966 351.459Z" fill="#50BB50"/>
<path d="M108.468 118.247C110.409 115.376 109.085 113.101 107.618 110.038C104.302 103.12 99.5343 97.0155 92.2841 94.1006C92.4963 92.4901 92.2338 90.8527 91.529 89.3892C90.8241 87.9257 89.7074 86.6998 88.3159 85.8617C81.2481 81.4732 70.2999 86.3768 71.3231 93.3384C71.4792 94.4339 71.9102 95.4721 72.5758 96.3562C73.2413 97.2403 74.1199 97.9415 75.1296 98.3944C56.9704 112.805 54.4735 127.061 41.4443 136.131C33.9838 141.326 25.2322 143.573 14.284 152.687C8.36753 157.457 3.54656 163.444 0.148321 170.241C0.037232 170.441 -0.0132205 170.669 0.00313726 170.897C0.019495 171.125 0.101954 171.343 0.240423 171.525C0.378893 171.707 0.567367 171.844 0.782785 171.921C0.998203 171.997 1.23122 172.009 1.45333 171.955C8.81448 170.241 14.5242 176.635 18.2544 182.067C21.8391 187.292 25.3292 193.226 31.3045 196.044C37.5593 198.991 44.0081 196.693 52.6188 197.919C60.1255 198.986 66.5096 202.654 73.4435 205.504C80.0748 208.227 87.8378 209.71 94.379 205.966C94.532 205.873 94.6622 205.747 94.7599 205.598C94.8577 205.448 94.9205 205.278 94.9438 205.101C94.9671 204.923 94.9502 204.743 94.8944 204.573C94.8387 204.403 94.7454 204.247 94.6215 204.118C89.4269 198.182 89.2375 189.629 90.7619 182.234C92.5266 173.669 96.7257 165.834 98.9731 157.413C102.345 144.763 98.7144 129.982 107.288 119.736C108.016 121.914 108.51 124.164 108.762 126.446C108.863 130.521 107.187 131.629 104.031 131.528C103.754 131.528 103.488 131.638 103.292 131.834C103.095 132.03 102.985 132.297 102.985 132.574C102.985 132.852 103.095 133.118 103.292 133.314C103.488 133.51 103.754 133.62 104.031 133.62C111.977 133.637 111.739 125.488 108.468 118.247ZM75.4021 106.527C74.6179 107.638 73.6738 108.627 72.6004 109.463C71.5891 110.478 70.6448 111.559 69.7733 112.696C66.5974 116.835 66.8491 118.512 65.26 119.221C65.1902 119.26 65.1125 119.282 65.0329 119.286C64.9533 119.29 64.8739 119.275 64.8006 119.244C64.7273 119.213 64.6622 119.165 64.6101 119.105C64.5581 119.044 64.5204 118.973 64.5001 118.896C64.4047 118.233 64.4471 117.557 64.6247 116.911C64.8024 116.265 65.1115 115.663 65.5326 115.142C67.0836 112.403 69.06 109.928 71.3878 107.809C72.2909 106.783 73.4557 106.023 74.7577 105.608C74.8714 105.597 74.986 105.616 75.0898 105.664C75.1936 105.711 75.2828 105.786 75.3484 105.879C75.414 105.973 75.4535 106.082 75.463 106.196C75.4724 106.31 75.4514 106.424 75.4021 106.527Z" fill="black"/>
<path d="M170.665 51.749C169.399 51.6013 168.12 51.62 166.859 51.8045C164.246 51.8645 160.622 51.3425 158.241 54.0865C157.071 55.6993 156.129 57.4651 155.439 59.3342C154.642 61.025 153.404 62.6949 152.698 64.4642C150.342 63.0483 147.427 64.7275 144.891 65.6421C130.085 70.9869 111.365 80.995 99.5712 91.6591C99.1854 92.0079 99.7305 92.7424 100.169 92.4213C109.387 85.5806 119.184 79.5577 129.45 74.4215C135.917 71.2568 142.582 68.514 149.404 66.2103C151.222 65.7068 152.012 66.3743 153.099 67.6793C154.967 69.9121 156.839 72.1587 158.714 74.4192C148.859 81.895 140.057 90.6656 132.545 100.494C129.677 103.734 127.305 107.38 125.505 111.315C125.258 111.992 126.235 112.507 126.701 112.022C130.723 107.823 138.562 92.3058 160.74 75.5094C160.874 75.4262 160.987 75.3144 161.073 75.1821C161.158 75.0498 161.213 74.9002 161.234 74.7441C161.255 74.588 161.241 74.4293 161.193 74.2792C161.145 74.1292 161.065 73.9916 160.957 73.8764C153.624 65.231 154.82 66.3928 153.855 65.4065C156.058 63.2377 157.622 58.5836 159.135 56.2322C161.907 51.9407 167.395 55.0612 170.852 53.2688C170.987 53.1823 171.094 53.0596 171.162 52.9148C171.23 52.7699 171.255 52.6089 171.236 52.4502C171.216 52.2914 171.152 52.1414 171.051 52.0174C170.95 51.8934 170.817 51.8004 170.665 51.749Z" fill="black"/>
<path d="M235.451 73.9596C228.753 59.0987 220.009 40.4937 202.066 37.4471C188.042 35.0658 174.908 43.591 169.252 56.096C171.205 54.7416 173.598 54.1786 175.95 54.5208C176.539 54.6897 177.081 54.9922 177.535 55.4047C177.988 55.8173 178.34 56.3287 178.563 56.8994C178.787 57.47 178.875 58.0845 178.823 58.695C178.77 59.3056 178.578 59.8958 178.26 60.4198C176.972 62.3138 175.394 63.9928 173.583 65.395C172.472 66.5314 170.287 70.8945 165.318 72.2457C164.991 77.6503 164.964 83.0688 165.238 88.4763C165.268 89.294 165.392 90.7861 166.189 90.5967C188.968 85.1595 211.922 80.4684 234.701 75.0475C234.929 74.992 235.648 74.3984 235.451 73.9596Z" fill="#50BB50"/>
<path d="M159.219 64.7991C164.801 63.1961 169.76 57.7544 173.465 57.431C174.225 57.3663 175.909 57.4841 175.585 58.7083C175.389 59.452 174.1 60.3251 172.269 62.1337C169.753 64.6189 169.869 66.5499 165.908 68.5501C164.449 68.9723 163.022 69.4995 161.639 70.1277C161.371 70.3217 161.23 70.8391 161.639 71.0239C163.18 71.7168 165.143 70.7744 166.587 70.1C168.08 69.4166 169.394 68.393 170.421 67.1112C171.508 65.2235 172.914 63.5392 174.578 62.1337C175.641 61.1867 177.565 59.7154 177.325 58.0847C177.146 57.4814 176.782 56.9494 176.285 56.564C175.788 56.1786 175.182 55.9591 174.553 55.9366C169.934 55.2899 164.658 61.7479 159.002 63.9029C158.466 64.1108 158.648 64.9631 159.219 64.7991Z" fill="black"/>
</svg>
