<svg width="452" height="665" viewBox="0 0 452 665" fill="none" xmlns="http://www.w3.org/2000/svg">
<path d="M181.163 37.0653C202.155 32.4169 208.42 31.7474 215.198 27.873C215.267 27.8342 215.325 27.7773 215.365 27.7083C215.405 27.6393 215.425 27.5608 215.423 27.4812C215.423 26.6717 214.36 26.2254 213.83 25.7221C206.829 19.0747 205.402 8.18498 197.148 2.44453C195.03 0.929462 192.508 0.0802611 189.905 0.00541246C187.301 -0.0694361 184.735 0.633466 182.533 2.02432C178.248 5.20134 175.347 9.90275 174.428 15.1576C172.736 22.3913 173.068 30.0713 169.846 36.9276C169.805 37.0103 169.788 37.1034 169.798 37.1954C169.809 37.2874 169.846 37.3744 169.905 37.4455C169.965 37.5167 170.044 37.569 170.132 37.5959C170.221 37.6228 170.315 37.6232 170.404 37.5971C173.981 38.2884 177.672 38.1059 181.163 37.0653Z" fill="#50BB50"/>
<path d="M325.287 81.581C323.151 60.7653 313.868 44.3559 293.793 37.597C274.088 30.9663 250.704 36.41 237.542 51.6039C236.412 52.9073 238.3 54.8207 239.442 53.5031C250.752 40.4981 269.48 35.2704 286.194 38.4113C306.594 42.2478 316.959 54.8516 321.346 74.2927C333.506 128.169 269.307 152.905 241.258 119.637C233.846 110.853 228.481 99.0184 230.249 87.6966C230.51 86.0205 227.925 85.2631 227.65 86.9701C224.91 104.044 237.431 124.649 253.47 132.552C285.501 148.323 329.682 124.212 325.287 81.581Z" fill="#50BB50"/>
<path d="M108.776 150.49C119.07 142.929 131.192 150.459 138.286 158.818C141.92 163.284 145.015 168.163 147.507 173.355C153.124 184.513 153.28 187.513 155.946 190.009C156.307 190.346 157.06 190.149 157.008 189.562C156.542 187.19 155.702 184.907 154.52 182.799C151.476 175.451 147.782 168.391 143.483 161.7C138.283 154.241 130.63 146.609 121.212 145.27C118.841 144.819 116.395 144.978 114.103 145.731C111.811 146.484 109.747 147.806 108.105 149.574C107.715 150.044 108.214 150.906 108.776 150.49Z" fill="black"/>
<path d="M185.259 179.665C182.342 177.018 181.01 175.225 177.686 176.647C171.427 179.156 165.562 182.553 160.272 186.735C159.268 187.575 160.576 189.244 161.671 188.551C167.043 184.89 172.717 181.693 178.631 178.993C179.061 178.81 179.535 178.76 179.994 178.85C180.452 178.94 180.873 179.165 181.202 179.496C184.294 182.069 187.123 184.942 189.646 188.074C184.029 196.039 178.196 204.291 169.415 209.003C147.336 220.845 133.581 197.689 128.534 193.719C128.425 193.62 128.285 193.562 128.138 193.556C127.991 193.55 127.846 193.596 127.729 193.686C127.613 193.775 127.531 193.903 127.5 194.047C127.468 194.191 127.488 194.341 127.556 194.472C128.938 196.891 130.608 199.135 132.529 201.152C137.897 207.341 144.44 212.942 152.471 214.537C163.228 216.674 173.6 210.976 180.919 203.498C185.193 198.912 189.063 193.967 192.488 188.717C192.633 188.461 192.692 188.166 192.656 187.874C192.621 187.582 192.493 187.309 192.291 187.096C190.161 184.425 187.808 181.939 185.259 179.665Z" fill="black"/>
<path d="M197.889 157.757C197.888 157.633 197.854 157.512 197.792 157.405C197.73 157.298 197.641 157.209 197.534 157.147C197.427 157.085 197.305 157.052 197.181 157.051C197.057 157.05 196.936 157.081 196.828 157.142C195.736 157.752 195.377 158.932 194.817 160.02C191.377 166.667 189.271 168.701 188.502 171.811C188.397 172.234 188.924 172.761 189.34 172.455C191.416 170.486 193.086 168.13 194.257 165.52C197.822 159.253 198.003 158.759 197.889 157.757Z" fill="black"/>
<path d="M204.207 155.718C203.491 156.843 202.945 158.067 202.585 159.35C200.693 163.869 198.452 168.234 195.883 172.405C195.819 172.524 195.8 172.663 195.829 172.795C195.858 172.927 195.934 173.044 196.042 173.126C196.151 173.207 196.285 173.246 196.42 173.237C196.555 173.227 196.682 173.17 196.778 173.075C200.031 169.557 202.616 165.476 204.406 161.031C205.198 159.609 205.692 158.04 205.859 156.421C205.826 155.632 204.762 155.015 204.207 155.718Z" fill="black"/>
<path d="M200.488 176.367C200.487 176.456 200.506 176.544 200.545 176.625C200.584 176.705 200.641 176.775 200.711 176.829C200.782 176.883 200.864 176.92 200.952 176.937C201.039 176.954 201.129 176.95 201.215 176.925C202.393 176.411 203.374 175.529 204.009 174.411C207.188 170.761 209.636 166.533 211.219 161.959C211.257 161.813 211.24 161.658 211.173 161.523C211.105 161.388 210.991 161.282 210.852 161.224C210.712 161.166 210.557 161.161 210.414 161.209C210.27 161.256 210.149 161.354 210.073 161.484C202.946 173.445 200.657 173.917 200.488 176.367Z" fill="black"/>
<path d="M214.875 170.304C214.994 169.718 214.237 169.134 213.786 169.661C211.485 172.986 208.675 175.929 205.457 178.378C199.171 182.934 195.764 182.922 195.147 185.225C195.103 185.399 195.127 185.583 195.216 185.739C195.304 185.896 195.45 186.011 195.622 186.063C197.395 186.697 199.81 184.714 201.293 183.884C206.272 181.104 213.745 175.911 214.875 170.304Z" fill="black"/>
<path d="M182.185 168.068C181.069 168.514 181.128 169.606 180.929 170.667C180.664 171.968 180.477 173.283 180.369 174.606C180.319 175.335 181.318 175.365 181.57 174.774C182.064 173.529 182.467 172.249 182.773 170.945C183.011 169.967 183.5 169.046 182.745 168.236C182.681 168.153 182.592 168.092 182.492 168.062C182.391 168.032 182.284 168.034 182.185 168.068Z" fill="black"/>
<path d="M260.26 182.488C235.668 151.786 201.147 126.223 192.125 118.467C189.632 116.33 186.788 113.885 183.294 113.885C179.438 113.885 176.06 117.325 173.346 119.696C171.579 121.24 169.89 122.873 168.287 124.587C166.533 126.067 165.219 128 164.489 130.175C163.639 134.594 168.152 138.416 170.832 141.269C177.631 148.7 185.047 155.542 193.001 161.722C193.588 162.168 194.309 161.197 193.782 160.715C188.419 155.813 171.822 140.194 168.159 134.42C165.7 130.551 167.71 128.765 172.238 124.333C174.976 121.527 178.033 119.051 181.347 116.957C184.616 115.445 187.807 118.144 190.15 120.169C206.056 133.855 228.638 149.156 259.648 185.334C260.776 186.455 261.677 187.784 262.302 189.247C263.802 193.817 258.133 199.486 254.757 202.883C253.523 204.275 252.021 205.406 250.342 206.207C246.761 207.655 244.195 203.985 241.558 201.736C225.326 187.851 223.809 185.624 215.039 178.233C214.007 177.364 212.525 178.791 213.53 179.741C231.886 197.107 237.337 201.397 239.77 203.522C242.36 205.787 246.27 211.207 252.008 208.021C254.904 206.046 257.43 203.577 259.47 200.727C262.128 198.246 263.937 194.99 264.638 191.421C264.968 187.77 262.411 185.17 260.26 182.488Z" fill="black"/>
<path d="M185.064 166.866C185.152 166.964 185.266 167.034 185.393 167.067C185.52 167.101 185.654 167.096 185.779 167.055C185.903 167.013 186.013 166.936 186.094 166.833C186.176 166.73 186.225 166.605 186.237 166.475C186.038 164.708 185.467 163.003 184.561 161.472C182.212 156.068 179.18 150.988 175.539 146.355C175.1 145.846 174.222 146.414 174.533 146.998C176.325 150.364 178.343 153.588 180.095 156.945C183.794 164.053 183.568 165.373 185.064 166.866Z" fill="black"/>
<path d="M232.372 206.798C230.672 202.94 229.07 199.004 227.175 195.229C226.615 194.113 224.68 194.897 225.136 196.096C227.443 202.173 229.606 206.195 234.58 217.5C235.4 218.907 235.924 220.467 236.118 222.084C236.09 223.649 234.805 224.435 233.547 225.045C231.885 225.854 222.152 229.589 217.926 230.914C214.097 232.115 213.149 231.042 211.611 227.561C206.447 215.879 200.18 200.189 194.788 189.814C194.724 189.704 194.62 189.621 194.499 189.582C194.377 189.542 194.245 189.549 194.128 189.601C194.011 189.652 193.916 189.745 193.863 189.861C193.81 189.978 193.801 190.109 193.839 190.232C196.227 197.261 199.147 204.092 202.025 210.938C209.147 227.901 208.876 227.815 210.381 230.5C210.929 231.64 211.835 232.568 212.96 233.143C214.086 233.719 215.369 233.909 216.613 233.686C220.835 232.638 224.958 231.225 228.937 229.465C231.562 228.433 235.195 227.566 237.208 225.429C239.221 223.293 238.511 220.444 237.431 218.025C235.767 214.274 234.024 210.542 232.372 206.798Z" fill="black"/>
<path d="M116.573 410.873C115.74 414.786 114.313 418.945 115.037 423C115.318 424.726 116.155 426.313 117.421 427.519C118.687 428.725 120.313 429.484 122.05 429.681C131.444 431.022 140.924 431.666 150.413 431.608C154.577 431.713 159.021 432.026 162.876 430.098C164.474 429.432 165.784 428.22 166.572 426.679C167.36 425.137 167.576 423.366 167.181 421.68C165.932 417.682 161.72 418.086 158.461 417.238C150.759 415.235 143.979 405.829 137.168 406.814C135.309 407.229 133.622 408.205 132.334 409.608C131.294 410.558 129.044 412.706 127.695 411.061C126.347 409.416 124.056 411.773 125.376 413.38C126.323 414.297 127.572 414.836 128.889 414.899C130.205 414.961 131.5 414.541 132.529 413.718C135.656 411.647 136.218 408.471 141.332 411.035C147.006 413.884 151.526 418.938 157.817 420.45C159.398 420.638 160.966 420.917 162.513 421.288C162.879 421.414 163.211 421.624 163.482 421.9C163.754 422.177 163.957 422.512 164.076 422.881C164.196 423.249 164.228 423.64 164.17 424.023C164.112 424.406 163.966 424.77 163.743 425.087C161.867 428.468 156.858 428.463 153.535 428.411C145.292 428.285 136.995 428.033 128.778 427.238C125.257 426.896 119.617 427.238 118.411 423.045C117.243 418.993 119.598 414.95 118.299 410.89C118.05 410.092 116.77 409.952 116.573 410.873Z" fill="black"/>
<path d="M94.4967 408.946C93.2502 411.736 92.5754 414.748 92.512 417.803C92.2203 419.043 92.1915 420.33 92.4274 421.582C92.6633 422.833 93.1588 424.022 93.8818 425.07C95.6699 426.689 98.0112 427.559 100.422 427.501C102.098 427.639 103.803 427.696 105.479 427.696C106.971 427.848 108.476 427.597 109.838 426.969C110.004 426.87 110.143 426.729 110.238 426.56C110.334 426.391 110.385 426.2 110.385 426.006C110.385 425.811 110.334 425.62 110.238 425.452C110.143 425.283 110.004 425.141 109.838 425.042C106.545 423.598 99.0904 425.405 96.5099 423.143C94.9169 421.747 95.3988 418.784 95.5318 416.911C95.9316 414.431 96.1924 411.931 96.3128 409.423C96.2978 409.216 96.2186 409.02 96.0863 408.861C95.9541 408.702 95.7754 408.588 95.5753 408.535C95.3751 408.483 95.1636 408.494 94.9702 408.568C94.7768 408.641 94.6112 408.773 94.4967 408.946Z" fill="black"/>
<path d="M333.752 147.333C322.212 147.249 310.586 146.414 299.046 146.886C294.241 147.083 289.476 148.448 288.092 153.621C287.08 159.608 286.985 165.713 287.812 171.728C288.422 176.59 288.93 183.361 293.878 185.897C297.244 187.625 295.991 187.193 350.575 188.662C376.981 189.375 403.419 189.966 429.825 188.997C435.708 188.781 441.836 189.199 444.692 185.897C446.139 183.766 446.872 181.232 446.786 178.658C447.327 172.279 447.158 165.859 446.282 159.516C446.225 156.913 445.463 154.373 444.077 152.169C441.228 148.645 435.511 149.32 428.539 149.206C402.104 148.731 342.584 147.653 339.286 147.584C338.919 147.584 338.567 147.73 338.308 147.99C338.048 148.249 337.902 148.601 337.902 148.968C337.902 149.335 338.048 149.687 338.308 149.947C338.567 150.207 338.919 150.352 339.286 150.352C363.625 150.737 424.683 151.81 430.83 151.917C438.41 152.047 442.213 151 443.322 157.923C444.239 163.819 444.53 169.795 444.188 175.752C444.053 178.269 444.276 181.96 442.595 183.995C441.09 185.816 438.263 185.847 436.083 185.951C411.775 187.138 387.434 186.749 363.093 186.177C350.938 185.889 302.261 184.624 299.381 184.415C292.525 183.914 291.938 180.42 290.834 173.601C289.91 167.749 289.779 161.799 290.445 155.912C291.331 149.873 295.597 149.768 301.705 149.597C312.151 149.305 326.141 149.963 333.703 148.814C334.65 148.664 334.73 147.34 333.752 147.333Z" fill="black"/>
<path d="M450.281 286.02C450.225 283.412 449.462 280.868 448.073 278.66C445.224 275.14 439.507 275.823 432.535 275.7C406.1 275.225 346.58 274.145 343.282 274.078C342.925 274.093 342.588 274.245 342.341 274.503C342.094 274.761 341.956 275.104 341.956 275.461C341.956 275.818 342.094 276.162 342.341 276.419C342.588 276.677 342.925 276.829 343.282 276.844C367.621 277.231 428.679 278.302 434.828 278.409C442.408 278.542 446.209 277.492 447.318 284.417C448.235 290.313 448.526 296.289 448.184 302.246C448.049 304.761 448.272 308.455 446.591 310.489C445.086 312.31 442.261 312.339 440.079 312.445C415.771 313.632 391.43 313.243 367.092 312.669C354.934 312.384 306.257 311.118 303.379 310.909C296.523 310.408 295.934 306.911 294.833 300.093C293.908 294.242 293.776 288.293 294.441 282.407C295.326 276.36 299.607 276.26 305.701 276.089C316.653 275.785 328.349 276.488 337.698 275.308C337.891 275.308 338.076 275.232 338.212 275.095C338.348 274.959 338.425 274.774 338.425 274.582C338.425 274.389 338.348 274.204 338.212 274.068C338.076 273.932 337.891 273.855 337.698 273.855C326.158 273.601 314.533 272.934 302.992 273.406C298.185 273.604 293.423 274.969 292.038 280.142C291.024 286.128 290.93 292.234 291.758 298.249C292.366 303.113 292.874 309.881 297.822 312.417C301.19 314.145 299.937 313.715 354.521 315.183C380.928 315.895 407.363 316.488 433.769 315.52C439.654 315.304 445.782 315.722 448.635 312.417C450.069 310.281 450.802 307.752 450.732 305.181C451.328 298.798 451.176 292.367 450.281 286.02Z" fill="black"/>
<path d="M268.085 282.862C268.03 280.254 267.267 277.71 265.877 275.503C263.028 271.982 257.314 272.666 250.341 272.54C223.906 272.065 164.386 270.987 161.089 270.921C160.732 270.936 160.395 271.088 160.147 271.346C159.9 271.603 159.762 271.947 159.762 272.304C159.762 272.661 159.9 273.004 160.147 273.262C160.395 273.52 160.732 273.672 161.089 273.687C185.428 274.074 246.486 275.144 252.632 275.251C260.212 275.382 264.028 274.335 265.124 281.26C266.042 287.156 266.332 293.132 265.988 299.089C265.856 301.603 266.079 305.297 264.396 307.332C262.893 309.153 260.065 309.181 257.886 309.288C224.856 310.893 187.771 309.658 142.217 308.402C142.217 300.043 142.194 281.196 141.688 272.858C146.302 272.922 150.915 272.684 155.498 272.146C155.691 272.146 155.875 272.069 156.012 271.933C156.148 271.797 156.224 271.612 156.224 271.419C156.224 271.227 156.148 271.042 156.012 270.906C155.875 270.77 155.691 270.693 155.498 270.693C150.847 270.591 146.182 270.42 141.515 270.287C140.743 261.551 139.356 252.88 137.363 244.339C135.126 234.114 132.959 222.497 127.392 213.851C126.169 211.908 124.721 210.117 123.078 208.514C123.159 208.215 124.949 200.257 125.072 199.711C125.983 196.28 126.655 192.79 127.085 189.266C127.147 188.539 126.107 188.484 125.884 189.099C124.761 192.513 123.856 195.994 123.173 199.521C122.786 201.228 121.447 206.881 121.229 208.016C112.832 208.108 113.28 208.659 99.252 208.659C99.9344 209.804 100.75 210.864 101.683 211.817C101.823 211.964 101.928 212.14 101.991 212.333C102.053 212.526 102.072 212.73 102.046 212.931C102.019 213.132 101.948 213.325 101.837 213.495C101.726 213.665 101.578 213.807 101.405 213.913C98.4207 215.911 95.0005 217.165 91.4315 217.568C87.8626 217.972 84.2488 217.514 80.8934 216.232C79.6115 215.731 78.7568 215.283 76.4777 214.359C60.1585 276.939 78.7188 290.661 79.8584 314.176C80.5065 327.533 78.7022 340.977 80.3901 354.298C82.1849 368.454 86.8808 381.279 91.5126 395.737C91.8247 397.54 92.5405 399.25 93.6065 400.739C95.0594 402.222 97.3242 401.888 99.2805 402.025C104.658 402.401 108.755 402.529 113.978 402.529C112.25 396.539 108.95 378.359 107.915 371.666C102.88 339.165 106.773 325.809 107.523 316.783C108.28 307.7 105.849 298.647 103.808 289.873C102.01 281.599 99.3031 273.548 95.736 265.869C95.6299 265.663 95.6068 265.423 95.6714 265.2C95.7359 264.977 95.8834 264.788 96.0834 264.67C96.2834 264.552 96.5209 264.515 96.7472 264.567C96.9735 264.619 97.1714 264.755 97.3005 264.948C102.834 272.675 105.239 282.188 107.333 291.326C109.375 300.24 111.552 309.183 110.491 318.376C108.949 327.635 108.284 337.02 108.506 346.404C109.133 360.563 110.964 374.642 113.978 388.491C114.904 393.073 116.661 402.408 116.661 402.462C120.528 402.384 123.33 402.287 128.09 401.93C135.499 401.377 137.652 402.184 138.298 397.014C138.483 396.718 138.598 396.383 138.633 396.036C141.261 367.825 142.146 339.533 142.225 311.218C184.889 312.388 218.811 313.573 251.583 312.372C257.466 312.156 263.593 312.574 266.449 309.269C267.896 307.139 268.63 304.604 268.545 302.03C269.062 295.643 268.908 289.218 268.085 282.862Z" fill="black"/>
<path d="M239.611 215.655C247.476 215.836 373.36 216.012 432.535 217.025C434.192 216.866 435.863 217.082 437.425 217.658C438.987 218.233 440.399 219.153 441.557 220.349C443.525 222.798 444.764 225.752 445.134 228.872C446.224 235.455 448.888 246.027 442.675 249.858C435.809 254.091 415.765 253.146 408.303 252.959C394.698 252.617 382.464 253.213 327.294 252.541C284.857 252.023 181.358 254.948 148.528 253.908C146.795 253.854 146.823 256.508 148.528 256.591C167.444 257.541 186.532 256.76 205.448 256.537C224.203 256.313 419.445 256.036 427.633 255.501C431.471 255.296 435.284 254.754 439.028 253.882C441.818 253.424 444.385 252.075 446.345 250.036C449.742 246 449.393 240.172 448.748 235.317C448.035 229.857 447.458 223.753 443.914 219.278C442.141 216.986 439.602 215.408 436.761 214.834C433.675 214.255 241.925 213.856 239.698 213.967C239.492 213.984 239.299 214.074 239.154 214.222C239.01 214.371 238.924 214.566 238.913 214.773C238.903 214.98 238.967 215.183 239.096 215.345C239.224 215.508 239.407 215.618 239.611 215.655Z" fill="black"/>
<path d="M195.408 146.606C193.827 147.081 192.754 149.161 193.06 147.501C193.314 146.131 194.268 145.127 194.01 143.646C193.925 143.112 193.665 142.621 193.27 142.251C192.876 141.881 192.369 141.654 191.83 141.604C191.192 141.638 190.571 141.826 190.021 142.152C189.471 142.478 189.009 142.933 188.673 143.477C188.395 143.814 188.143 144.349 187.666 144.427C187.137 144.517 187.298 144.261 187.248 143.646C187.129 142.361 187.156 141.067 187.332 139.788C188.201 138.747 188.839 137.533 189.205 136.227C189.271 135.975 189.253 135.708 189.152 135.468C189.052 135.227 188.875 135.026 188.65 134.896C188.424 134.766 188.162 134.714 187.903 134.747C187.645 134.781 187.405 134.899 187.22 135.083C186.111 136.14 185.36 137.517 185.069 139.021C183.144 140.947 180.506 141.106 180.15 138.546C180.004 137.221 180.079 135.88 180.373 134.579C182.684 133.138 184.672 131.236 186.213 128.991C187.111 127.68 189.034 124.998 186.774 123.96C182.738 122.111 179.4 129.221 178.391 133.601C176.958 134.355 175.484 135.026 173.975 135.612C173.415 135.849 173.415 136.847 174.141 136.799C175.469 136.668 176.769 136.338 177.999 135.821C177.724 136.807 177.676 137.842 177.86 138.849C178.044 139.856 178.454 140.808 179.06 141.633C179.781 142.425 180.773 142.918 181.84 143.011C182.907 143.104 183.97 142.792 184.817 142.136C184.817 143.938 184.782 145.747 185.99 146.663C186.539 146.996 187.185 147.131 187.82 147.044C188.456 146.958 189.043 146.656 189.482 146.188C190.045 145.714 190.406 144.873 191.021 144.484C192.165 143.755 191.348 145.403 191.132 145.908C190.851 146.437 190.681 147.017 190.632 147.613C190.583 148.21 190.656 148.81 190.847 149.377C191.071 149.873 191.463 150.274 191.954 150.509C192.445 150.744 193.003 150.798 193.53 150.661C194.772 150.355 195.358 149.301 195.904 149.097C196.996 148.688 197.644 149.657 197.412 150.661C197.141 151.836 198.924 152.729 199.453 151.528C199.76 150.925 199.885 150.246 199.812 149.574C199.739 148.902 199.471 148.265 199.041 147.743C198.612 147.221 198.04 146.835 197.394 146.633C196.749 146.431 196.059 146.422 195.408 146.606ZM184.789 125.928C186.156 125.197 185.993 125.705 185.404 126.738C184.345 128.638 182.932 130.318 181.24 131.685C181.917 129.498 183.141 127.518 184.789 125.928Z" fill="#50BB50"/>
<path d="M243.803 192.967C243.542 190.562 242.834 188.245 242.684 185.785C242.59 184.221 243.131 181.733 241.958 180.474C240.474 178.884 238.872 179.86 237.599 181.453C237.542 179.777 237.416 178.129 237.208 176.45C237.202 176.265 237.155 176.084 237.07 175.919C236.985 175.754 236.865 175.61 236.717 175.498C236.57 175.386 236.4 175.308 236.218 175.27C236.037 175.231 235.849 175.234 235.669 175.278C232.346 175.859 232.146 180.118 231.17 181.65C230.695 178.711 230.023 175.807 229.16 172.958C228.792 171.451 226.664 172.12 226.895 173.573C227.304 175.044 227.246 176.607 226.729 178.043C226.254 178.912 225.05 179.693 224.157 179.022C222.227 177.571 225.499 173.21 226.588 172.12C227.175 171.534 226.365 170.39 225.665 170.919C223.778 172.229 222.39 174.139 221.726 176.339C220.411 181.519 225.734 183.1 228.348 179.748C228.348 179.72 228.376 179.72 228.376 179.693C228.789 181.137 228.87 183.729 230.641 184.247C233.547 185.113 233.687 180.783 235 178.687C235.16 181.236 235.16 183.794 235 186.343C234.909 187.825 237.075 188.005 237.514 186.678C237.918 185.203 238.665 183.844 239.693 182.711C240.472 181.98 240.268 182.542 240.253 183.326C240.081 186.78 240.584 190.235 241.735 193.496C242.124 194.56 243.921 194.083 243.803 192.967Z" fill="#50BB50"/>
<path d="M218.652 213.505C217.612 211.691 219.407 210.264 220.216 208.783C221.403 206.632 221.308 203.412 218.4 202.859C216.885 202.57 213.847 204.272 214.207 201.741C216.926 200.701 221.033 197.926 220.162 195.118C219.986 194.695 219.711 194.321 219.36 194.027C219.009 193.733 218.593 193.528 218.146 193.429C217.699 193.33 217.234 193.341 216.792 193.459C216.35 193.578 215.943 193.802 215.606 194.111C213.878 195.679 212.71 197.769 212.282 200.063C211.275 200.371 210.249 200.615 209.21 200.792C208.26 200.951 208.624 202.235 209.405 202.328C210.26 202.43 211.126 202.411 211.976 202.271C211.901 202.947 212.079 203.627 212.476 204.18C212.873 204.732 213.462 205.118 214.127 205.262C215.717 205.606 219.654 203.918 218.459 207.106C217.674 209.2 215.532 210.603 215.971 213.087C216.268 214.749 217.448 215.841 220.75 219.819C221.764 221.042 223.566 219.271 222.51 218.06C221.084 216.666 219.792 215.14 218.652 213.505ZM216.807 196.124C217.087 196.29 217.339 196.459 217.619 196.654C216.937 197.507 216.103 198.227 215.159 198.778C215.349 198.334 216.411 196.202 216.807 196.124Z" fill="#50BB50"/>
<path d="M431.893 233.121C430.188 233.233 428.51 233.401 426.834 233.653C427.784 231.5 428.69 229.325 429.488 227.113C429.801 226.248 428.512 225.802 428.064 226.5C426.784 228.487 425.604 230.607 424.486 232.758C422.712 229.967 420.792 227.273 418.731 224.686C418.171 223.988 417.134 224.886 417.53 225.61C419.156 228.582 420.939 231.478 422.727 234.394C420.714 234.785 418.705 235.275 416.747 235.764C415.937 235.965 416.075 237.345 416.941 237.243C418.84 237.024 420.714 236.853 422.615 236.685C421.385 239.339 420.274 242.052 419.178 244.676C418.651 245.936 420.854 246.884 421.414 245.625C422.53 243.109 423.705 240.623 424.849 238.107C425.821 239.959 426.904 241.751 428.092 243.472C428.259 243.742 428.525 243.936 428.833 244.013C429.141 244.089 429.467 244.042 429.741 243.881C430.015 243.721 430.215 243.459 430.299 243.153C430.382 242.847 430.343 242.52 430.188 242.242C429.241 240.176 428.119 238.194 426.834 236.319C428.538 236.151 430.217 236.018 431.919 235.816C433.541 235.614 433.624 233.01 431.893 233.121Z" fill="#50BB50"/>
<path d="M435.303 167.061C433.596 167.158 431.92 167.341 430.244 167.593C431.193 165.442 432.1 163.265 432.898 161.055C433.211 160.19 431.922 159.742 431.473 160.44C430.194 162.427 429.014 164.547 427.896 166.698C426.122 163.907 424.201 161.212 422.141 158.626C421.581 157.928 420.543 158.823 420.94 159.547C422.566 162.522 424.349 165.416 426.136 168.331C424.123 168.723 422.115 169.212 420.156 169.701C419.347 169.903 419.484 171.282 420.351 171.182C422.25 170.962 424.123 170.791 426.025 170.622C424.795 173.276 423.684 175.992 422.587 178.615C422.06 179.874 424.263 180.823 424.824 179.565C425.939 177.051 427.115 174.563 428.259 172.049C429.231 173.901 430.314 175.692 431.502 177.414C431.669 177.684 431.935 177.878 432.243 177.955C432.551 178.031 432.877 177.984 433.151 177.823C433.425 177.663 433.625 177.401 433.708 177.095C433.792 176.789 433.752 176.462 433.598 176.184C432.652 174.114 431.53 172.128 430.244 170.249C431.948 170.083 433.627 169.945 435.329 169.746C436.979 169.556 437.033 166.964 435.303 167.061Z" fill="#50BB50"/>
<path d="M344.232 385.92C344.219 376.261 343.622 366.612 342.445 357.025C341.614 351.38 339.71 347.983 333.977 347.833C330.764 347.748 327.521 347.776 324.309 347.748C162.653 346.373 254.356 345.744 225.136 346.629C221.1 346.753 216.554 346.739 213.819 350.236C210.433 354.563 210.996 361.358 210.996 366.555C210.996 373.855 211.742 396.271 215.438 402.574C218.322 407.491 223.821 406.968 228.768 407.101C269.478 408.188 299.197 409.651 328.222 407.184C335.209 406.591 339.548 406.828 342.11 403.16C344.627 399.559 344.261 393.251 344.232 385.92ZM317.574 361.244C314.505 365.444 312.503 365.292 297.157 377.926C290.244 383.624 283.485 389.488 277.009 395.672C276.639 396.023 276.149 396.218 275.64 396.218C275.131 396.218 274.641 396.023 274.272 395.672C268.597 390.979 263.334 385.809 258.539 380.22C256.922 378.657 255.701 376.732 254.978 374.603C254.871 373.931 255.426 373.034 256.236 373.345C258.719 374.294 259.847 376.652 266.207 383.097C269.191 386.122 272.325 388.966 275.568 391.703C285.413 382.482 294.973 374.413 304.992 366.666C308.396 364.034 311.919 360.617 316.114 359.345C317.121 359.041 318.225 360.356 317.574 361.244Z" fill="#50BB50"/>
<path d="M111.495 121.539C113.489 118.588 112.129 116.249 110.621 113.101C107.212 105.991 102.312 99.7164 94.8598 96.7204C95.0779 95.0651 94.8082 93.3821 94.0837 91.8778C93.3592 90.3736 92.2115 89.1135 90.7812 88.2521C83.5166 83.7414 72.2636 88.7815 73.3153 95.9369C73.4758 97.063 73.9187 98.1301 74.6029 99.0388C75.287 99.9475 76.19 100.668 77.2278 101.134C58.563 115.945 55.9967 130.598 42.6047 139.921C34.9365 145.26 25.9412 147.57 14.6882 156.938C8.60707 161.841 3.65189 167.994 0.159039 174.981C0.044857 175.186 -0.00700018 175.42 0.009813 175.655C0.0266262 175.889 0.111381 176.113 0.253705 176.3C0.396029 176.487 0.589751 176.629 0.811166 176.707C1.03258 176.786 1.27209 176.798 1.50038 176.742C9.06647 174.981 14.9351 181.552 18.7692 187.136C22.4537 192.506 26.0409 198.605 32.1826 201.501C38.6115 204.531 45.2398 202.168 54.0903 203.429C61.806 204.526 68.3678 208.296 75.4947 211.225C82.3106 214.024 90.2898 215.549 97.0131 211.7C97.1703 211.605 97.3041 211.475 97.4046 211.321C97.5051 211.167 97.5697 210.993 97.5936 210.811C97.6176 210.628 97.6002 210.443 97.5429 210.268C97.4855 210.093 97.3897 209.934 97.2624 209.801C91.9231 203.7 91.7285 194.909 93.2953 187.307C95.1091 178.504 99.4251 170.451 101.735 161.795C105.201 148.793 101.469 133.601 110.282 123.07C111.03 125.308 111.538 127.62 111.796 129.967C111.901 134.154 110.177 135.294 106.934 135.189C106.649 135.189 106.375 135.303 106.174 135.504C105.972 135.706 105.859 135.98 105.859 136.265C105.859 136.55 105.972 136.824 106.174 137.025C106.375 137.227 106.649 137.34 106.934 137.34C115.101 137.357 114.856 128.981 111.495 121.539ZM77.5079 109.493C76.7019 110.635 75.7315 111.652 74.6282 112.51C73.5888 113.554 72.6181 114.664 71.7224 115.834C68.458 120.088 68.7168 121.812 67.0835 122.541C67.0117 122.58 66.9319 122.603 66.85 122.607C66.7682 122.611 66.6865 122.596 66.6112 122.564C66.5359 122.532 66.469 122.482 66.4155 122.42C66.3619 122.358 66.3233 122.285 66.3024 122.206C66.2043 121.524 66.2479 120.83 66.4305 120.166C66.6131 119.502 66.9307 118.883 67.3636 118.348C68.9578 115.533 70.9892 112.988 73.3818 110.81C74.3101 109.756 75.5073 108.974 76.8456 108.548C76.9624 108.536 77.0802 108.556 77.1869 108.605C77.2936 108.654 77.3853 108.731 77.4527 108.827C77.5201 108.923 77.5607 109.035 77.5704 109.152C77.5801 109.269 77.5586 109.387 77.5079 109.493Z" fill="black"/>
<path d="M175.423 53.1897C174.122 53.038 172.807 53.0571 171.511 53.2467C168.826 53.3085 165.101 52.7719 162.653 55.5923C161.451 57.2501 160.482 59.0649 159.773 60.9861C158.954 62.7239 157.682 64.4404 156.955 66.2589C154.534 64.8036 151.538 66.5295 148.931 67.4697C133.713 72.9632 114.472 83.25 102.35 94.2109C101.953 94.5694 102.514 95.3244 102.965 94.9944C112.439 87.9632 122.509 81.7726 133.061 76.4934C139.708 73.2406 146.559 70.4215 153.57 68.0537C155.438 67.5361 156.25 68.2222 157.368 69.5636C159.288 71.8585 161.212 74.1676 163.14 76.491C153.01 84.175 143.962 93.1898 136.242 103.292C133.294 106.622 130.856 110.37 129.006 114.414C128.752 115.11 129.756 115.639 130.235 115.141C134.369 110.825 142.426 94.8757 165.222 77.6116C165.359 77.5261 165.476 77.4112 165.564 77.2752C165.651 77.1392 165.708 76.9855 165.729 76.825C165.751 76.6646 165.736 76.5014 165.687 76.3472C165.638 76.193 165.555 76.0516 165.445 75.9331C157.907 67.0471 159.137 68.2412 158.145 67.2275C160.41 64.9983 162.017 60.2146 163.572 57.7978C166.421 53.3868 172.061 56.5941 175.615 54.7519C175.754 54.6629 175.864 54.5368 175.934 54.3879C176.003 54.2391 176.03 54.0736 176.01 53.9104C175.99 53.7473 175.924 53.5931 175.82 53.4656C175.716 53.3381 175.579 53.2425 175.423 53.1897Z" fill="black"/>
<path d="M242.013 76.0187C235.128 60.744 226.14 41.6211 207.699 38.4897C193.283 36.0421 179.785 44.8047 173.971 57.6578C175.978 56.2656 178.438 55.687 180.855 56.0387C181.461 56.2123 182.018 56.5232 182.484 56.9473C182.95 57.3713 183.311 57.897 183.541 58.4835C183.771 59.07 183.862 59.7016 183.808 60.3292C183.754 60.9567 183.556 61.5634 183.229 62.102C181.906 64.0486 180.283 65.7744 178.422 67.2157C177.28 68.3837 175.034 72.8683 169.927 74.2571C169.591 79.8121 169.563 85.3815 169.844 90.9396C169.875 91.78 170.003 93.3136 170.823 93.1189C194.235 87.5304 217.829 82.7087 241.242 77.1368C241.477 77.0799 242.215 76.4697 242.013 76.0187Z" fill="#50BB50"/>
<path d="M163.658 66.6032C169.396 64.9556 174.493 59.3623 178.301 59.0299C179.082 58.9635 180.813 59.0845 180.48 60.3428C180.278 61.1072 178.954 62.0046 177.071 63.8635C174.486 66.418 174.604 68.4027 170.533 70.4586C169.033 70.8925 167.567 71.4344 166.146 72.0801C165.87 72.2795 165.726 72.8113 166.146 73.0012C167.729 73.7134 169.747 72.7448 171.231 72.0516C172.766 71.3492 174.116 70.2971 175.172 68.9796C176.289 67.0394 177.735 65.3082 179.445 63.8635C180.537 62.8901 182.515 61.3779 182.268 59.7018C182.084 59.0817 181.71 58.535 181.199 58.1388C180.688 57.7426 180.065 57.5171 179.419 57.4939C174.671 56.8292 169.249 63.467 163.435 65.682C162.884 65.8957 163.071 66.7717 163.658 66.6032Z" fill="black"/>
<path d="M36.9458 509.218L35.6716 431.693H98.1044V458.771L70.3282 459.76V465.201L98.1044 466.19V491.166L70.3282 491.413V509.218H36.9458Z" fill="black"/>
<path d="M106.744 505.756L104.45 431.94L168.667 431.693L169.814 454.814L139.362 456.422L139.489 460.378L169.559 462.109L168.412 478.554L141.91 481.398L142.037 484.366L168.539 486.838L168.794 509.342H110.311L106.744 505.756Z" fill="black"/>
<path d="M172.443 509.218L194.741 431.693L239.973 432.435L264.309 509.218H223.664L216.783 488.94H214.745L208.247 509.218H172.443ZM224.046 468.539C223.536 464.706 222.39 461.491 219.714 459.266C217.93 459.266 215.382 465.819 214.872 469.652C218.312 469.652 220.988 469.034 224.046 468.539Z" fill="black"/>
<path d="M267.948 509.095L267.821 481.274H289.863L268.458 454.938L269.095 443.81C271.77 436.515 278.778 433.795 286.041 431.94L331.528 431.693L332.165 460.626L313.053 460.873L332.419 485.355L333.566 495.988C330.891 503.654 323.755 507.611 315.983 508.971L267.948 509.095Z" fill="black"/>
<path d="M358.876 509.218L357.474 463.099L337.598 464.088V431.693H415.065V461.862L394.424 462.604V509.218H358.876Z" fill="black"/>
<path d="M35.6716 597.384L37.871 523.117H90.9014C98.1106 524.301 110.33 529.987 110.696 539.7C110.818 543.608 110.207 552.137 108.13 555.098L97.9884 560.073L108.863 563.626C111.185 566.943 112.407 574.523 112.407 580.09C112.407 590.395 101.043 596.91 90.1683 597.384H35.6716ZM73.3061 548.702C74.1614 548.583 75.0168 548.583 75.7499 548.228C77.3384 546.806 77.8271 547.043 76.3608 543.253C73.6727 542.424 71.2289 541.476 68.5407 543.253C67.5632 544.911 68.0519 546.333 68.5407 547.754C70.007 548.583 71.7176 548.702 73.3061 548.702ZM76.6052 579.261C76.8496 578.432 76.8496 577.84 76.8496 577.129C76.8496 575.945 76.7274 574.642 75.5055 573.813C74.528 573.102 73.6727 572.865 72.6951 572.628C71.1067 572.036 68.9073 571.917 67.3188 573.102C66.5857 575.234 65.9747 576.655 67.9297 579.972C69.2738 580.683 71.5954 581.986 76.6052 579.261Z" fill="black"/>
<path d="M120.416 594.067L118.217 523.354L179.8 523.117L180.9 545.267L151.697 546.806L151.819 550.597L180.656 552.255L179.556 568.009L154.14 570.733L154.263 573.576L179.678 575.945L179.922 597.502H123.837L120.416 594.067Z" fill="black"/>
<path d="M183.422 597.384L204.805 523.117L248.183 523.828L271.521 597.384H232.542L225.944 577.958H223.989L217.757 597.384H183.422ZM232.909 558.414C232.42 554.742 231.32 551.663 228.754 549.531C227.044 549.531 224.6 555.809 224.111 559.48C227.41 559.48 229.976 558.888 232.909 558.414Z" fill="black"/>
<path d="M275.011 597.265L274.889 570.615H296.028L275.5 545.385L276.111 534.725C278.677 527.736 285.397 525.13 292.362 523.354L335.984 523.117L336.595 550.834L318.266 551.071L336.839 574.523L337.939 584.71C335.373 592.054 328.53 595.844 321.077 597.147L275.011 597.265Z" fill="black"/>
<path d="M362.211 597.384L360.866 553.203L341.805 554.15V523.117H416.096V552.018L396.301 552.729V597.384H362.211Z" fill="black"/>
<path d="M35.6716 664.827V611.45H64.693C70.4442 612.573 74.6912 613.955 78.8498 619.569L78.7613 633.734C76.1954 637.88 74.2488 640.384 70.7981 641.593L85.2203 664.827H68.6746L52.2174 643.494V664.827H35.6716ZM62.481 628.724C61.9501 624.406 60.269 623.024 53.987 623.024C50.0054 626.047 50.8902 628.465 53.987 631.488C59.8266 633.302 61.4193 631.056 62.481 628.724Z" fill="black"/>
<path d="M93.6985 664.223V611.536L129.533 611.364L128.471 625.269L108.209 626.219L108.475 631.143L128.56 632.438V643.839L109.359 644.876L109.713 649.971L128.737 651.699L128.825 664.655H102.723L93.6985 664.223Z" fill="black"/>
<path d="M173.785 664.827L155.027 664.568C145.826 661.891 140.871 650.749 140.871 644.789C140.871 641.075 140.694 630.106 140.959 626.306C143.967 620.173 150.338 614.3 157.328 611.709L173.874 611.364C179.359 612.055 184.934 616.373 188.915 620.001L177.59 627.342C173.608 626.392 170.865 624.838 165.734 625.442C159.009 627.083 155.381 633.475 155.381 638.139C157.859 646.517 161.487 650.403 167.68 650.576C171.573 650.576 175.378 648.33 180.244 644.357L192.277 651.353C185.199 659.818 180.067 661.545 173.785 664.827Z" fill="black"/>
<path d="M200.132 664.741L199.601 611.623L236.232 611.277L236.409 625.269L216.147 626.133L215.085 631.574L236.409 632.352L236.763 643.666L215.882 644.962L216.059 649.971L236.763 651.613L235.347 664.827L208.715 664.655L200.132 664.741Z" fill="black"/>
<path d="M249.074 664.827L249.162 611.45H263.85C266.504 611.45 274.379 611.364 279.423 613.782C284.377 616.2 290.217 620.26 290.217 628.551C290.217 636.066 287.386 641.334 283.493 645.653C279.246 647.899 271.636 649.021 264.204 648.935L263.585 664.827H249.074ZM275.618 631.488C274.91 627.256 272.787 625.01 266.416 625.01C263.939 628.12 263.142 632.525 266.327 635.461C272.256 637.275 274.556 633.906 275.618 631.488Z" fill="black"/>
<path d="M301.919 664.741L301.034 611.45H317.845L318.11 664.827L301.919 664.741Z" fill="black"/>
<path d="M332.293 662.582L331.851 611.45L366.624 611.536L367.508 625.097L347.6 626.219L346.893 631.574L367.066 632.525L366.624 643.666L347.689 645.221L347.777 649.885L367.331 651.613L367.42 665L335.744 664.741L332.293 662.582Z" fill="black"/>
<path d="M377.961 664.827L378.581 650.662H395.923L378.758 627.601L379.023 618.36C381.058 614.387 385.394 612.486 389.375 611.536L416.096 611.623L416.008 626.219L397.781 626.392L415.211 648.417L415.123 656.881C413.707 661.632 410.345 663.704 407.602 664.914L377.961 664.827Z" fill="black"/>
</svg>
